<svg width="27" height="27" viewBox="0 0 27 27" fill="none" xmlns="http://www.w3.org/2000/svg">
<g clip-path="url(#clip0)">
<path d="M10.2247 19.4839C15.3582 19.4839 19.5197 15.3127 19.5197 10.1673C19.5197 5.0218 15.3582 0.850586 10.2247 0.850586C5.0912 0.850586 0.929688 5.0218 0.929688 10.1673C0.929688 15.3127 5.0912 19.4839 10.2247 19.4839Z" stroke="black" stroke-width="0.7" stroke-miterlimit="10" stroke-linecap="round"/>
<path d="M17.7022 15.8506C17.8237 16.4383 18.0954 17.2624 18.7604 17.9218C19.5111 18.6671 20.3834 18.8391 20.8267 18.9824C21.9707 19.3408 23.7225 20.5663 26.2965 24.4649C25.9604 24.8018 25.6244 25.1386 25.2883 25.4754L25.5028 25.2604C25.1668 25.5973 24.8307 25.9341 24.4947 26.2709C20.6051 23.6909 19.3824 21.9351 19.0249 20.7884C18.8819 20.3369 18.7103 19.4626 17.9667 18.7173C17.3018 18.0508 16.4867 17.7784 15.9004 17.6566" stroke="black" stroke-width="0.7" stroke-miterlimit="10" stroke-linecap="round"/>
</g>
<defs>
<clipPath id="clip0">
<rect width="25.9402" height="26.0007" fill="white" transform="translate(0.679688 0.599609)"/>
</clipPath>
</defs>
</svg>
