<svg width="241" height="50" viewBox="0 0 241 50" fill="none" xmlns="http://www.w3.org/2000/svg">
<path d="M1.67155 10.6682C1.67155 16.1042 6.95808 19.7192 16.5391 20.8199L26.0114 21.9207C29.6535 22.3148 34.0023 23.239 34.0023 25.4949C34.0023 27.7509 29.3409 29.5176 23.1574 29.5176C13.4813 29.5176 10.4915 26.5006 8.983 23.8641L8.71127 23.4021L0 25.726L0.217487 26.3375C1.07366 28.7022 5.27294 36.3941 22.94 36.3941C35.769 36.3941 43.1212 32.2084 43.1212 24.897C43.1212 19.2571 38.3104 15.8868 28.4168 14.6093L19.0533 13.427C10.7905 12.5572 10.7905 10.9536 10.7905 10.2741C10.7905 7.6376 16.0771 6.69989 20.6026 6.69989C30.5233 6.69989 32.9015 9.64893 33.8392 11.8777L34.0703 12.4349L42.6999 10.0295L42.4417 9.4179C41.436 7.06682 38.4327 0 20.82 0C8.4802 0 1.67155 3.79162 1.67155 10.6682Z" fill="white"/>
<path d="M2.06455 10.6681C2.06455 15.9954 7.28313 19.5288 16.7554 20.6296L26.2276 21.7304C29.9649 22.1245 34.4088 23.103 34.4088 25.4948C34.4088 27.8867 29.761 29.7349 23.3601 29.7349C13.5889 29.7349 10.5447 26.6635 8.99544 23.9863L8.80516 23.6602L0.460938 25.8753L0.610408 26.2694C1.46658 28.6069 5.59798 36.2174 23.1427 36.2174C35.8494 36.2174 43.1336 32.0996 43.1336 24.924C43.1336 19.4201 38.3771 16.1041 28.6059 14.8266L19.2424 13.6443C10.7894 12.7338 10.7893 11.0622 10.7893 10.2468C10.7893 7.46082 15.9671 6.46874 20.8052 6.46874C30.8482 6.46874 33.2673 9.49932 34.2186 11.7689L34.3816 12.163L42.6444 9.86625L42.4677 9.47214C41.4757 7.18901 38.5131 0.217322 21.0227 0.217322C8.79164 0.203732 2.06455 3.94099 2.06455 10.6681Z" fill="white"/>
<path d="M68.8203 22.1791C68.8203 30.8223 75.8192 36.3943 86.6504 36.3943C98.1884 36.3943 102.388 29.7759 102.958 27.452L103.135 26.691H94.2201L94.0434 27.0851C93.2552 28.6343 90.7819 30.4418 86.433 30.4418C81.4863 30.2787 78.4964 28.281 77.5044 24.5437H103.516V23.9186C103.516 13.8348 97.3458 8.23569 86.134 8.14056C74.1748 8.09979 68.8203 15.1666 68.8203 22.1791ZM85.9845 14.0794C90.6323 14.0794 93.3231 15.5607 94.4511 18.7136H77.8305C79.0672 15.6015 81.7309 14.0794 85.9845 14.0794Z" fill="white"/>
<path d="M69.0234 22.1788C69.0234 30.6998 75.9408 36.2037 86.6498 36.2037C98.0654 36.2037 102.21 29.6941 102.768 27.411L102.89 26.881H94.3417L94.2058 27.1392C93.3904 28.7292 90.8627 30.6046 86.4188 30.6046C81.2002 30.428 78.156 28.2808 77.2319 24.3125H103.325V23.8776C103.325 13.9297 97.2228 8.38493 86.1469 8.28979C74.3236 8.30338 69.0234 15.2751 69.0234 22.1788ZM85.9839 13.8889C90.9035 13.8889 93.6487 15.5333 94.7359 18.9172H77.5308C78.7267 15.5741 81.4584 13.8889 85.9839 13.8889Z" fill="white"/>
<path d="M111.682 8.95581H103.025L115.433 35.5515H122.908L130.056 18.9445L137.204 35.5515H144.801L157.1 8.95581H148.538L141.064 25.6716L133.63 8.95581H126.55L119.198 25.6444L111.818 8.95581H111.682Z" fill="white"/>
<path d="M156.054 9.146H148.674L141.064 26.1471L133.494 9.146H126.658C126.658 9.146 120.054 24.2038 119.198 26.12L111.696 9.146H103.338L115.569 35.3476H122.799C122.799 35.3476 129.241 20.385 130.083 18.428C130.926 20.3986 137.354 35.3476 137.354 35.3476H144.692L156.801 9.146H156.054Z" fill="white"/>
<path d="M158.255 16.6613L158.079 17.4495H166.695L166.831 16.9738C167.035 16.2672 167.633 14.1063 174.224 14.1063C178.899 14.1063 181.263 15.0033 181.263 16.77V17.3136C173.721 17.7077 156.557 18.6182 156.557 28.1449C156.557 34.6817 164.289 36.4076 168.856 36.4076C173.218 36.3668 177.512 35.3204 181.399 33.3634L181.739 35.6194L182.364 35.565H190.627L190.043 34.6273C189.866 34.3419 189.58 33.4857 189.58 30.8357V18.1833C189.58 14.9217 189.58 8.11313 174.156 8.11313C167.864 8.09954 159.981 9.58085 158.255 16.6613ZM165.58 27.8051V27.71C165.621 25.8889 167.306 24.8289 171.383 24.0135C174.645 23.3612 177.961 22.967 181.291 22.8311V27.5605C178.437 28.9874 174.604 30.6182 169.875 30.6182C168.298 30.6182 167.075 30.2921 166.355 29.6669C165.825 29.1913 165.553 28.5118 165.58 27.8051Z" fill="white"/>
<path d="M158.461 16.7021L158.338 17.2321H166.56L166.655 16.8924C166.873 16.1449 167.512 13.8754 174.239 13.8754C179.036 13.8754 181.482 14.8403 181.482 16.7429V17.4767C173.722 17.8709 156.775 18.8493 156.775 28.1042C156.775 34.4779 164.386 36.1902 168.884 36.1902C174.714 36.1902 179.009 34.2876 181.577 33.0373L181.931 35.3748L182.379 35.3341H190.316L189.922 34.6953C189.69 34.342 189.419 33.3635 189.419 30.795V18.1698C189.419 14.9626 189.419 8.30347 174.184 8.30347C167.946 8.30347 160.146 9.7576 158.461 16.7021ZM166.248 29.8165C165.677 29.3137 165.364 28.5798 165.392 27.8052V27.7101C165.432 25.7803 167.158 24.6523 171.358 23.8233C174.701 23.1438 178.085 22.7361 181.496 22.6002V27.6829C178.574 29.1642 174.66 30.8086 169.903 30.8086C168.245 30.8086 166.995 30.4688 166.248 29.8165Z" fill="white"/>
<path d="M213.976 8.09961C209.736 8.09961 206.406 9.34989 204.028 11.7825V8.94219H195.697V35.5379H204.028V21.4722C204.082 19.5017 204.205 15.3431 212.182 15.3023C213.473 15.2887 214.764 15.4111 216.028 15.6964L216.871 15.8867L217.129 15.18V8.23551L213.976 8.09961Z" fill="white"/>
<path d="M203.823 12.2581V9.14597H195.887V35.3476H203.823V21.4721C203.878 19.5016 204.014 15.1528 212.181 15.112C213.499 15.0984 214.804 15.2343 216.095 15.5197L216.734 15.6556L216.924 15.1392V8.39852L213.961 8.28979C208.607 8.30338 205.59 10.2875 203.823 12.2581Z" fill="white"/>
<path d="M229.115 2.51408H220.975V28.4031C220.975 33.9071 224.345 36.3941 231.887 36.3941C234.293 36.3669 236.685 36.1902 239.063 35.8641L240.068 35.7553V29.2457L239.185 29.4495C237.296 29.8572 235.38 30.0747 233.45 30.129C230.583 30.129 229.305 29.1777 229.305 27.0305V15.1392H240.15V8.87422H229.319V2.50049H229.115V2.51408Z" fill="white"/>
<path d="M221.178 2.70435V28.4031C221.178 33.7848 224.48 36.1902 231.887 36.1902C234.279 36.163 236.67 35.9864 239.049 35.6602L239.878 35.5651V29.4767L239.239 29.6262C237.336 30.0339 235.406 30.265 233.463 30.3193C230.5 30.3193 229.128 29.2729 229.128 27.0305V14.9626H239.973V9.07807H229.128V2.70435H221.178Z" fill="white"/>
<path d="M55.5291 2.51408H47.3887V28.4031C47.3887 33.9071 50.759 36.3941 58.3015 36.3941C60.707 36.3669 63.0988 36.1902 65.477 35.8641L66.4827 35.7553V29.2457L65.5858 29.4495C63.6967 29.8572 61.7805 30.0747 59.8643 30.129C56.9968 30.129 55.7194 29.1777 55.7194 27.0305V15.1392H66.5642V8.87422H55.7194V2.50049H55.5291V2.51408Z" fill="white"/>
<path d="M47.5918 2.70435V28.4031C47.5918 33.7848 50.8942 36.1902 58.3144 36.1902C60.7062 36.163 63.098 35.9864 65.4763 35.6602L66.3052 35.5651V29.4767L65.6529 29.6262C63.7503 30.0339 61.8205 30.265 59.8772 30.3193C56.9145 30.3193 55.5419 29.2729 55.5419 27.0305V14.9626H66.3732V9.07807H55.5283V2.70435H47.5918Z" fill="white"/>
<path d="M3.62891 41.7622H9.79884V43.3794H5.4092V45.1054H9.26881V46.7226H5.4092V49.8755H3.62891V41.7622Z" fill="white"/>
<path d="M29.123 41.7622H30.9033V49.8619H29.123V41.7622Z" fill="white"/>
<path d="M50.7461 41.7622H52.5264V48.2447H56.5626V49.8619H50.7461V41.7622Z" fill="white"/>
<path d="M75.7363 41.7622H77.6526L79.7862 45.1869L81.9199 41.7622H83.8496V49.8619H82.0829V44.5753L79.7862 48.0272H79.7454L77.4895 44.6025V49.8619H75.7363V41.7622Z" fill="white"/>
<path d="M103.039 48.6796L104.099 47.4157C104.765 48.0273 105.621 48.3806 106.518 48.3942C107.252 48.3942 107.7 48.1088 107.7 47.6331V47.6196C107.7 47.1711 107.415 46.9401 106.07 46.5867C104.439 46.1654 103.379 45.7169 103.379 44.1133V44.0726C103.379 42.6048 104.561 41.6263 106.219 41.6263C107.306 41.6128 108.38 41.9797 109.223 42.6592L108.298 44.0046C107.687 43.5425 106.953 43.2571 106.192 43.2164C105.512 43.2164 105.146 43.529 105.146 43.9231V43.9502C105.146 44.4803 105.485 44.6569 106.899 45.0103C108.543 45.4451 109.467 46.0295 109.467 47.4429V47.4701C109.467 49.0737 108.244 49.9842 106.491 49.9842C105.213 49.9978 103.99 49.5222 103.039 48.6796Z" fill="white"/>
<path d="M128.467 45.8392V45.812C128.427 43.5424 130.234 41.667 132.517 41.6262C132.572 41.6262 132.64 41.6262 132.694 41.6262C133.89 41.5719 135.059 42.0204 135.888 42.8765L134.76 44.1812C134.216 43.624 133.469 43.2842 132.694 43.2706C131.362 43.2842 130.316 44.385 130.329 45.7033C130.329 45.7304 130.329 45.7576 130.329 45.7848V45.812C130.329 47.1982 131.294 48.3533 132.694 48.3533C133.509 48.3397 134.27 48 134.828 47.402L135.956 48.5436C135.127 49.5085 133.904 50.0385 132.64 49.9977C130.384 50.0385 128.522 48.231 128.481 45.9751C128.467 45.9343 128.467 45.8799 128.467 45.8392Z" fill="white"/>
<path d="M155.184 41.7622H158.894C159.763 41.7078 160.606 42.0068 161.258 42.5912C161.734 43.094 161.979 43.7599 161.951 44.4394V44.4802C162.006 45.6081 161.299 46.641 160.212 46.9943L162.182 49.889H160.103L158.364 47.2933H156.964V49.889H155.184V41.7622ZM158.771 45.6897C159.641 45.6897 160.13 45.2276 160.13 44.5481V44.5209C160.13 43.7599 159.6 43.3658 158.731 43.3658H156.964V45.6897H158.771Z" fill="white"/>
<path d="M181.373 41.7622H187.475V43.3387H183.14V44.983H186.945V46.5595H183.126V48.2582H187.516V49.8347H181.346V41.7622H181.373Z" fill="white"/>
<path d="M206.949 41.7622H213.051V43.3387H208.716V44.983H212.535V46.5595H208.716V48.2582H213.105V49.8347H206.936V41.7622H206.949Z" fill="white"/>
<path d="M232.525 41.7622H234.17L237.961 46.7498V41.7622H239.701V49.8619H238.192L234.251 44.7112V49.8619H232.498L232.525 41.7622Z" fill="white"/>
</svg>
