<svg xmlns="http://www.w3.org/2000/svg" xmlns:xlink="http://www.w3.org/1999/xlink" viewBox="0 0 33.56 19.58"><defs><style>.cls-1{fill:none;}.cls-2{clip-path:url(#clip-path);}.cls-3{fill:#fff;}.cls-4{fill:#80a7d8;}.cls-5{fill:#f1bd51;}.cls-6{fill:#7a361d;}</style><clipPath id="clip-path"><rect class="cls-1" width="33.56" height="19.58"/></clipPath></defs><title>Argentina</title><g id="Layer_2" data-name="Layer 2"><g id="_4" data-name="4"><g id="ARGENTINA"><g class="cls-2"><rect class="cls-3" y="6.53" width="33.56" height="6.53"/><rect class="cls-4" width="33.56" height="6.53"/><rect class="cls-4" y="13.05" width="33.56" height="6.52"/><g class="cls-2"><path class="cls-5" d="M16.65,9.79l.1,2.67s0,0,0,0,0,0,0,0l.1-2.67Z"/><path class="cls-6" d="M16.78,12.51s0,0,0,0l-.1-2.67h0l.09,2.67s0,0,0,0,0,0,0,0l.11-2.67-.09,2.67s0,0,0,0Z"/><polygon class="cls-6" points="16.71 9.79 16.78 11.62 16.85 9.79 16.71 9.79"/><path class="cls-5" d="M16.53,10.65c-.15.34,0,.61-.17.9a1.05,1.05,0,0,0-.07.67c0,.14-.12.18-.1.21s.15,0,.19-.21-.06-.29.12-.64,0-.53.23-.85Z"/><path class="cls-6" d="M16.22,12.44h0s0,0,0-.06a.3.3,0,0,0,.07-.15.62.62,0,0,0,0-.13.79.79,0,0,1,.08-.54,1,1,0,0,0,.08-.43,1.18,1.18,0,0,1,.09-.47h0a1,1,0,0,0-.09.47,1,1,0,0,1-.09.44.81.81,0,0,0-.07.53v.13a.22.22,0,0,1-.07.16s0,0,0,0,.14-.07.18-.21a.43.43,0,0,0,0-.16.93.93,0,0,1,.12-.48,1,1,0,0,0,.11-.43.77.77,0,0,1,.11-.41,1,1,0,0,0-.1.41,1,1,0,0,1-.11.44.84.84,0,0,0-.11.47,1,1,0,0,1,0,.17.29.29,0,0,1-.16.22Z"/><path class="cls-6" d="M16.57,10.73c-.12.34,0,.56-.15.85.18-.21.06-.47.21-.82Z"/><path class="cls-5" d="M16.91,9.79l-.1-2.67s0,0,0,0,0,0,0,0l-.1,2.67Z"/><path class="cls-6" d="M16.91,9.79,16.8,7.12s0,0,0,0,0,0,0,0l-.09,2.67.08-2.67s0-.06,0-.06,0,0,0,.06l.11,2.67Z"/><polygon class="cls-6" points="16.85 9.79 16.78 7.96 16.71 9.79 16.85 9.79"/><path class="cls-5" d="M17,8.92c.16-.33,0-.6.18-.9a1.1,1.1,0,0,0,.06-.67c0-.13.13-.17.1-.2s-.14,0-.19.21.06.28-.12.64,0,.52-.22.84Z"/><path class="cls-6" d="M17,8.93h0a1.12,1.12,0,0,0,.08-.46A1.15,1.15,0,0,1,17.2,8a.81.81,0,0,0,.07-.53V7.35a.27.27,0,0,1,.07-.16s0,0,0,0-.14.07-.17.21a.49.49,0,0,0,0,.17.86.86,0,0,1-.11.47.91.91,0,0,0-.11.44.93.93,0,0,1-.11.41,1.22,1.22,0,0,0,.09-.42A1,1,0,0,1,17.05,8a.77.77,0,0,0,.11-.47,1,1,0,0,1,0-.17c0-.15.12-.22.16-.23h.05s0,0,0,.06a.21.21,0,0,0-.07.15.56.56,0,0,0,0,.13.89.89,0,0,1-.08.55.92.92,0,0,0-.08.43,1,1,0,0,1-.09.47Z"/><path class="cls-6" d="M17,8.84c.12-.33,0-.56.16-.84-.18.2-.07.46-.22.81Z"/><path class="cls-5" d="M16.78,9.65l-2.67.1s0,0,0,0,0,0,0,0l2.67.1Z"/><path class="cls-6" d="M16.78,9.91l-2.67-.08s-.06,0-.06,0,0,0,.06,0l2.67-.1h0l-2.67.1s0,0,0,0,0,0,0,0l2.67.1Z"/><polygon class="cls-6" points="16.78 9.72 14.95 9.79 16.78 9.85 16.78 9.72"/><path class="cls-5" d="M15.92,9.54c-.34-.16-.61,0-.9-.18a1.25,1.25,0,0,0-.68-.07c-.13,0-.17-.12-.2-.09s0,.14.21.19.28-.06.64.12.53,0,.85.22Z"/><path class="cls-6" d="M15.84,9.72a1.22,1.22,0,0,0-.41-.09A1,1,0,0,1,15,9.52a.77.77,0,0,0-.47-.11.5.5,0,0,1-.17,0c-.13,0-.21-.1-.22-.16h0v0s0,0,.06,0a.18.18,0,0,0,.15.07h.12a.87.87,0,0,1,.55.07,1,1,0,0,0,.43.09,1,1,0,0,1,.47.09h0a1.16,1.16,0,0,0-.47-.08A1,1,0,0,1,15,9.37a.9.9,0,0,0-.53-.08h-.14a.24.24,0,0,1-.15-.08s0,0,0,0,.07.13.21.17h.16A.8.8,0,0,1,15,9.5a1,1,0,0,0,.43.11.9.9,0,0,1,.41.11Z"/><path class="cls-6" d="M15.83,9.58c-.33-.12-.55,0-.84-.16.21.18.47.06.81.22Z"/><path class="cls-5" d="M16.78,9.92l2.67-.1s.05,0,.05,0-.05,0-.05,0l-2.67-.1Z"/><path class="cls-6" d="M16.78,9.93v0l2.67-.1s0,0,0,0,0,0,0,0l-2.67-.1,2.67.09s.06,0,.06,0,0,0-.06,0l-2.67.1Z"/><polygon class="cls-6" points="16.78 9.85 18.61 9.79 16.78 9.72 16.78 9.85"/><path class="cls-5" d="M17.64,10c.34.15.62,0,.91.17a1.12,1.12,0,0,0,.67.07c.13,0,.17.12.2.09s0-.14-.21-.18-.28.06-.64-.12-.53,0-.84-.23Z"/><path class="cls-6" d="M19.41,10.39s0,0,0,0a.35.35,0,0,0-.15-.07h-.13a1,1,0,0,1-.55-.08,1.07,1.07,0,0,0-.43-.09,1.16,1.16,0,0,1-.47-.08v0a1.11,1.11,0,0,0,.46.09,1,1,0,0,1,.44.09.81.81,0,0,0,.53.07h.14a.24.24,0,0,1,.16.07l0,0c0-.07-.07-.14-.2-.17a.5.5,0,0,0-.17,0,.71.71,0,0,1-.47-.11,1,1,0,0,0-.43-.11.94.94,0,0,1-.42-.11,1.06,1.06,0,0,0,.42.1,1,1,0,0,1,.43.11.86.86,0,0,0,.47.11.49.49,0,0,1,.17,0,.29.29,0,0,1,.22.16h0v0Z"/><path class="cls-6" d="M17.73,10c.33.12.56,0,.84.15-.2-.18-.47-.06-.81-.21Z"/><path class="cls-5" d="M16.69,9.69l-1.82,2s0,0,0,.06.06,0,.06,0l2-1.82Z"/><path class="cls-6" d="M14.88,11.73c-.05,0,0-.07,0-.09l1.82-2h0l-1.81,2s0,0,0,0,.05,0,.05,0l2-1.81-2,1.82s0,0,0,0Z"/><polygon class="cls-6" points="16.73 9.74 15.49 11.08 16.83 9.83 16.73 9.74"/><path class="cls-5" d="M16,10.22c-.35.13-.45.42-.76.51a1.13,1.13,0,0,0-.52.43c-.1.09-.21,0-.21.08s.12.08.28,0,.15-.24.54-.37.39-.34.75-.43Z"/><path class="cls-6" d="M14.59,11.29l-.08,0,0,0s0,0,.06,0a.22.22,0,0,0,.15-.06.38.38,0,0,0,.09-.09.85.85,0,0,1,.44-.34.82.82,0,0,0,.36-.24,1.34,1.34,0,0,1,.4-.27v0a1,1,0,0,0-.39.26.9.9,0,0,1-.38.25.81.81,0,0,0-.43.33l-.09.09a.27.27,0,0,1-.16.07h0c.05,0,.15,0,.27,0a.63.63,0,0,0,.12-.11.79.79,0,0,1,.42-.25,1,1,0,0,0,.38-.23.92.92,0,0,1,.37-.21,1.11,1.11,0,0,0-.36.22.93.93,0,0,1-.39.23.77.77,0,0,0-.41.26.43.43,0,0,1-.12.11.49.49,0,0,1-.2.06Z"/><path class="cls-6" d="M16,10.31c-.32.15-.39.4-.7.48.27,0,.37-.28.73-.42Z"/><path class="cls-5" d="M16.88,9.88l1.81-2s0,0,0-.06-.07,0-.07,0L16.69,9.69Z"/><path class="cls-6" d="M16.88,9.89h0l1.82-2s0,0,0,0-.05,0-.05,0l-2,1.82,1.95-1.83s.05,0,.07,0,0,.06,0,.07l-1.82,2Z"/><polygon class="cls-6" points="16.83 9.83 18.08 8.49 16.73 9.74 16.83 9.83"/><path class="cls-5" d="M17.57,9.36c.34-.13.45-.42.76-.52s.42-.34.52-.42.21,0,.21-.08-.12-.08-.28,0-.15.25-.54.37-.39.34-.75.44Z"/><path class="cls-6" d="M17.57,9.36h0A1.13,1.13,0,0,0,18,9.08a.9.9,0,0,1,.37-.25.8.8,0,0,0,.43-.32.45.45,0,0,1,.09-.1A.25.25,0,0,1,19,8.35h0a.23.23,0,0,0-.26,0,.47.47,0,0,0-.13.11.85.85,0,0,1-.42.26,1,1,0,0,0-.38.22.83.83,0,0,1-.37.22,1,1,0,0,0,.36-.23,1,1,0,0,1,.39-.23.84.84,0,0,0,.41-.25.47.47,0,0,1,.13-.11.33.33,0,0,1,.27,0l0,0s0,0-.06,0a.22.22,0,0,0-.15.05l-.09.1a.81.81,0,0,1-.43.33,1,1,0,0,0-.38.24,1,1,0,0,1-.39.27Z"/><path class="cls-6" d="M17.6,9.26c.32-.15.39-.39.7-.48-.26,0-.37.29-.72.42Z"/><path class="cls-5" d="M16.88,9.69l-2-1.81s0,0-.06,0a.05.05,0,0,0,0,.06l1.82,2Z"/><path class="cls-6" d="M16.69,9.88l-1.83-2s0,0,0-.07.05,0,.06,0l2,1.82h0l-2-1.82s0,0-.05,0a0,0,0,0,0,0,0l1.81,2Z"/><polygon class="cls-6" points="16.83 9.74 15.49 8.49 16.73 9.83 16.83 9.74"/><path class="cls-5" d="M16.35,9c-.13-.35-.41-.45-.52-.76s-.33-.42-.42-.53,0-.2-.08-.2-.08.12,0,.28.25.15.37.54.34.39.44.75Z"/><path class="cls-6" d="M16.16,9.08a1.06,1.06,0,0,0-.22-.36,1,1,0,0,1-.23-.39.86.86,0,0,0-.26-.41.47.47,0,0,1-.11-.13.28.28,0,0,1,0-.27l0,0s0,0,0,0a.29.29,0,0,0,.05.16l.11.09a.85.85,0,0,1,.32.43,1,1,0,0,0,.25.37,1.22,1.22,0,0,1,.27.4h0a1,1,0,0,0-.27-.39,1,1,0,0,1-.24-.37.9.9,0,0,0-.33-.43l-.1-.09a.32.32,0,0,1-.06-.17s0,0,0,0a.24.24,0,0,0,0,.27.47.47,0,0,0,.11.13.79.79,0,0,1,.26.41,1.08,1.08,0,0,0,.23.39.8.8,0,0,1,.21.37Z"/><path class="cls-6" d="M16.26,9c-.15-.32-.4-.39-.49-.7,0,.26.29.37.42.72Z"/><path class="cls-5" d="M16.69,9.88l1.95,1.82s0,0,.07,0,0-.06,0-.06l-1.81-2Z"/><path class="cls-6" d="M18.68,11.72a0,0,0,0,1,0,0l-2-1.81h0l2,1.81s0,0,.05,0,0,0,0,0l-1.82-2,1.83,1.94s0,0,0,.07Z"/><polygon class="cls-6" points="16.73 9.83 18.08 11.08 16.83 9.74 16.73 9.83"/><path class="cls-5" d="M17.21,10.58c.13.34.42.44.52.76a1.12,1.12,0,0,0,.42.52c.09.1,0,.21.08.21s.08-.12,0-.28-.24-.16-.36-.54-.35-.4-.44-.75Z"/><path class="cls-6" d="M18.23,12.08s0,0,0-.06a.29.29,0,0,0-.05-.16l-.1-.08a.84.84,0,0,1-.33-.44,1,1,0,0,0-.25-.37,1.49,1.49,0,0,1-.27-.39h0a1.13,1.13,0,0,0,.27.39.83.83,0,0,1,.24.38,1,1,0,0,0,.33.43.45.45,0,0,1,.1.09.23.23,0,0,1,.05.16s0,0,0,0a.24.24,0,0,0,0-.27.43.43,0,0,0-.11-.12.91.91,0,0,1-.26-.42.85.85,0,0,0-.23-.38.92.92,0,0,1-.21-.37,1,1,0,0,0,.23.36,1,1,0,0,1,.23.39.75.75,0,0,0,.25.4.69.69,0,0,1,.11.13.33.33,0,0,1,.05.27l0,0Z"/><path class="cls-6" d="M17.3,10.61c.15.32.4.38.49.7,0-.27-.29-.37-.42-.73Z"/><path class="cls-5" d="M16.66,9.74l-.93,2.5s0,0,0,.06,0,0,0,0L16.9,9.84Z"/><path class="cls-6" d="M15.76,12.31s0-.05,0-.07l.93-2.51h0l-.92,2.5s0,0,0,0l0,0L16.9,9.84l-1.1,2.43a.07.07,0,0,1,0,0Z"/><polygon class="cls-6" points="16.72 9.76 16.08 11.48 16.84 9.81 16.72 9.76"/><path class="cls-5" d="M16.22,10.49c-.27.25-.26.55-.51.76a1.25,1.25,0,0,0-.32.6c-.06.12-.18.11-.16.15s.14,0,.25-.12,0-.29.36-.55.23-.46.53-.69Z"/><path class="cls-6" d="M15.27,12h0l0,0s0,0,0,0a.23.23,0,0,0,.12-.12.73.73,0,0,0,0-.12.82.82,0,0,1,.28-.47,1,1,0,0,0,.24-.37,1.3,1.3,0,0,1,.26-.4h0a1.51,1.51,0,0,0-.26.4.9.9,0,0,1-.25.37.87.87,0,0,0-.27.46.68.68,0,0,1,0,.13.34.34,0,0,1-.13.12s0,0,0,0,.15,0,.23-.13a.44.44,0,0,0,.08-.15.83.83,0,0,1,.28-.39A1,1,0,0,0,16.1,11a.93.93,0,0,1,.26-.34,1.15,1.15,0,0,0-.24.35,1,1,0,0,1-.28.36.83.83,0,0,0-.28.39.51.51,0,0,1-.07.15.35.35,0,0,1-.22.15Z"/><path class="cls-6" d="M16.23,10.58c-.24.27-.21.52-.47.72.24-.12.24-.41.51-.67Z"/><path class="cls-5" d="M16.9,9.84l.94-2.51s0,0,0,0-.05,0-.05,0L16.66,9.74Z"/><path class="cls-6" d="M16.91,9.84h0l.92-2.51s0,0,0,0l0,0L16.66,9.74l1.1-2.43,0,0,.05,0a.2.2,0,0,1,0,0l-.93,2.5Z"/><polygon class="cls-6" points="16.84 9.81 17.48 8.1 16.72 9.76 16.84 9.81"/><path class="cls-5" d="M17.35,9.09c.26-.25.25-.56.5-.77a1.11,1.11,0,0,0,.32-.59c.06-.12.18-.11.17-.15s-.15,0-.26.12,0,.28-.36.54-.23.47-.53.7Z"/><path class="cls-6" d="M17.35,9.09h0a1.16,1.16,0,0,0,.26-.39.84.84,0,0,1,.25-.38.87.87,0,0,0,.27-.46.93.93,0,0,0,0-.13.24.24,0,0,1,.13-.11l0,0c-.07,0-.16,0-.24.12a1.09,1.09,0,0,0-.08.15.74.74,0,0,1-.28.4,1.1,1.1,0,0,0-.27.35.8.8,0,0,1-.26.34,1.18,1.18,0,0,0,.25-.34.88.88,0,0,1,.26-.36A.8.8,0,0,0,18,7.85a.77.77,0,0,1,.07-.16.28.28,0,0,1,.24-.14l0,0s0,0,0,0a.24.24,0,0,0-.12.11.34.34,0,0,0,0,.12.94.94,0,0,1-.28.48,1,1,0,0,0-.25.36,1,1,0,0,1-.26.4Z"/><path class="cls-6" d="M17.34,9c.24-.26.2-.51.46-.71-.24.12-.23.4-.51.66Z"/><path class="cls-5" d="M16.83,9.66l-2.5-.92s-.05,0-.06,0,0,.05,0,.05l2.43,1.11Z"/><path class="cls-6" d="M16.73,9.9,14.3,8.8s-.05,0,0-.06.05,0,.07,0l2.5.93h0l-2.5-.93s0,0-.05,0,0,0,0,0L16.73,9.9Z"/><polygon class="cls-6" points="16.8 9.73 15.09 9.08 16.75 9.85 16.8 9.73"/><path class="cls-5" d="M16.08,9.22c-.25-.27-.55-.25-.77-.5a1.11,1.11,0,0,0-.59-.32c-.12-.06-.11-.18-.15-.17s0,.15.12.26.28,0,.55.36.46.23.69.52Z"/><path class="cls-6" d="M15.94,9.37a1.15,1.15,0,0,0-.35-.25.91.91,0,0,1-.36-.27.83.83,0,0,0-.39-.28l-.16-.07c-.1-.09-.15-.18-.14-.24l0,0s0,0,0,0a.3.3,0,0,0,.11.12l.12,0a.87.87,0,0,1,.48.28.94.94,0,0,0,.37.25,1.14,1.14,0,0,1,.4.26h0A1.16,1.16,0,0,0,15.68,9a.93.93,0,0,1-.38-.25.87.87,0,0,0-.46-.27l-.12,0a.28.28,0,0,1-.12-.13s0,0,0,0,0,.16.13.24a.31.31,0,0,0,.14.07.84.84,0,0,1,.4.29,1.12,1.12,0,0,0,.36.27.93.93,0,0,1,.34.26Z"/><path class="cls-6" d="M16,9.23c-.27-.24-.52-.21-.72-.46.12.24.4.23.67.51Z"/><path class="cls-5" d="M16.73,9.91l2.5.93s.05,0,.06,0,0-.05,0-.05L16.83,9.66Z"/><path class="cls-6" d="M19.26,10.85h0l-2.5-.93v0l2.51.93a0,0,0,0,0,.05,0s0,0,0,0L16.83,9.67l2.43,1.1s0,0,0,.06,0,0,0,0Z"/><polygon class="cls-6" points="16.75 9.85 18.47 10.49 16.8 9.73 16.75 9.85"/><path class="cls-5" d="M17.48,10.35c.25.27.56.25.77.51a1.19,1.19,0,0,0,.59.32c.12.06.11.17.16.16s0-.14-.13-.25-.28-.05-.54-.36-.47-.24-.7-.53Z"/><path class="cls-6" d="M19,11.35s0,0,0,0a.32.32,0,0,0-.11-.13l-.13,0a.88.88,0,0,1-.47-.28,1,1,0,0,0-.36-.24,1.1,1.1,0,0,1-.4-.26h0a1.12,1.12,0,0,0,.39.25,1,1,0,0,1,.38.25.83.83,0,0,0,.46.28l.12,0a.21.21,0,0,1,.12.13l0,0c0-.06,0-.15-.12-.24L18.71,11a.8.8,0,0,1-.39-.29,1,1,0,0,0-.36-.26.94.94,0,0,1-.33-.26,1.12,1.12,0,0,0,.34.24,1,1,0,0,1,.36.27.76.76,0,0,0,.39.28.6.6,0,0,1,.16.08c.12.09.15.19.14.23l0,0Z"/><path class="cls-6" d="M17.58,10.34c.26.24.51.21.71.47-.12-.24-.4-.24-.66-.51Z"/><path class="cls-5" d="M16.73,9.66,14.3,10.78s0,0,0,.05.06,0,.06,0l2.5-.93Z"/><path class="cls-6" d="M14.3,10.85a0,0,0,0,1,0,0s0-.05,0-.06l2.43-1.11h0L14.3,10.79s0,0,0,0,0,0,.05,0l2.5-.93-2.5.95Z"/><polygon class="cls-6" points="16.75 9.73 15.09 10.49 16.8 9.85 16.75 9.73"/><path class="cls-5" d="M15.89,9.88c-.37,0-.57.22-.91.19a1.21,1.21,0,0,0-.64.19c-.13,0-.2,0-.22,0s.08.12.26.1.24-.17.64-.14.5-.16.87-.11Z"/><path class="cls-6" d="M14.31,10.36a.24.24,0,0,1-.19-.07v0s0,0,.06,0a.24.24,0,0,0,.17,0l.12-.05a.83.83,0,0,1,.52-.14.81.81,0,0,0,.44-.09,1.13,1.13,0,0,1,.47-.09h0a1.35,1.35,0,0,0-.47.1,1,1,0,0,1-.44.09.79.79,0,0,0-.52.13l-.12.06a.24.24,0,0,1-.17,0h0c0,.06.11.1.25.08l.16-.05a.72.72,0,0,1,.48-.08,1.06,1.06,0,0,0,.44-.07.83.83,0,0,1,.43-.05,1,1,0,0,0-.42.07,1,1,0,0,1-.45.06.75.75,0,0,0-.47.08.76.76,0,0,1-.16.06Z"/><path class="cls-6" d="M15.83,10c-.36,0-.51.21-.84.17.26.09.45-.12.83-.1Z"/><path class="cls-5" d="M16.83,9.91,19.26,8.8s0,0,0-.05-.06,0-.06,0l-2.5.92Z"/><path class="cls-6" d="M16.83,9.92v0l2.43-1.11s0,0,0,0a.05.05,0,0,0-.05,0l-2.51.93,2.5-.94s.06,0,.07,0,0,0,0,.06L16.83,9.92Z"/><polygon class="cls-6" points="16.8 9.85 18.47 9.08 16.75 9.73 16.8 9.85"/><path class="cls-5" d="M17.68,9.69c.36,0,.57-.21.9-.18a1.17,1.17,0,0,0,.64-.2c.13,0,.21,0,.23,0s-.09-.12-.27-.09-.24.16-.64.13-.5.16-.86.12Z"/><path class="cls-6" d="M17.71,9.7h0v0a1.11,1.11,0,0,0,.46-.09.81.81,0,0,1,.44-.09.85.85,0,0,0,.52-.14l.12-.06a.3.3,0,0,1,.17,0h0c0-.06-.11-.1-.25-.09a.44.44,0,0,0-.16.06.79.79,0,0,1-.48.08.91.91,0,0,0-.44.06.89.89,0,0,1-.42.06,1.16,1.16,0,0,0,.41-.07,1.12,1.12,0,0,1,.45-.07A.85.85,0,0,0,19,9.28a.49.49,0,0,1,.17-.06.33.33,0,0,1,.27.06v.05s0,0-.06,0a.3.3,0,0,0-.17,0l-.11.06a.83.83,0,0,1-.54.13,1,1,0,0,0-.43.09,1.13,1.13,0,0,1-.43.1Z"/><path class="cls-6" d="M17.74,9.62c.35,0,.51-.22.83-.18-.25-.09-.45.12-.83.11Z"/><path class="cls-5" d="M16.9,9.74,15.79,7.31s0,0,0,0,0,0,0,0l.93,2.51Z"/><path class="cls-6" d="M16.66,9.84l-.94-2.5a.08.08,0,0,1,0,0l0,0a.07.07,0,0,1,0,0l1.11,2.42h0L15.76,7.28h0v0l.92,2.51Z"/><polygon class="cls-6" points="16.84 9.76 16.08 8.1 16.72 9.81 16.84 9.76"/><path class="cls-5" d="M16.69,8.89c0-.37-.22-.57-.19-.9a1.09,1.09,0,0,0-.2-.64c0-.13.05-.21,0-.22s-.13.08-.1.26.17.24.14.64.16.5.11.86Z"/><path class="cls-6" d="M16.69,8.89h0a1.3,1.3,0,0,0-.1-.46A1,1,0,0,1,16.49,8a.9.9,0,0,0-.13-.52.66.66,0,0,1-.06-.12.22.22,0,0,1,0-.17s0,0,0,0-.1.12-.08.26a.75.75,0,0,0,.05.16.79.79,0,0,1,.08.48,1.06,1.06,0,0,0,.07.44,1.05,1.05,0,0,1,.05.42,1.06,1.06,0,0,0-.07-.42A.94.94,0,0,1,16.35,8a.79.79,0,0,0-.08-.48.59.59,0,0,1-.06-.16.27.27,0,0,1,.07-.26h0s0,0,0,.06a.3.3,0,0,0,0,.17s0,.07.06.11a.86.86,0,0,1,.14.53.81.81,0,0,0,.09.44,1.11,1.11,0,0,1,.09.46Z"/><path class="cls-6" d="M16.61,8.83c0-.35-.21-.51-.18-.83-.08.25.12.45.11.83Z"/><path class="cls-5" d="M16.66,9.84l1.11,2.43s0,0,.05,0,0-.06,0-.06l-.94-2.5Z"/><path class="cls-6" d="M17.82,12.31a.11.11,0,0,1-.06,0L16.65,9.84h0l1.12,2.42s0,0,0,0,0,0,0,0l-.92-2.5.94,2.5a0,0,0,0,1,0,.07Z"/><polygon class="cls-6" points="16.72 9.81 17.48 11.48 16.84 9.76 16.72 9.81"/><path class="cls-5" d="M16.88,10.68c0,.37.21.57.18.9a1.22,1.22,0,0,0,.19.65c.05.13,0,.2,0,.22s.12-.08.09-.27-.16-.23-.13-.64-.17-.49-.12-.86Z"/><path class="cls-6" d="M17.24,12.46s0,0,0-.06a.31.31,0,0,0,0-.17,1.33,1.33,0,0,0-.06-.12.93.93,0,0,1-.14-.53.89.89,0,0,0-.08-.43,1.12,1.12,0,0,1-.1-.47h0a1.25,1.25,0,0,0,.1.46.94.94,0,0,1,.09.44.9.9,0,0,0,.13.52l.06.12a.21.21,0,0,1,0,.18s0,0,0,0,.1-.12.08-.26a.88.88,0,0,0,0-.15.82.82,0,0,1-.08-.49,1,1,0,0,0-.07-.44,1,1,0,0,1-.05-.42,1,1,0,0,0,.07.42,1,1,0,0,1,.06.45.85.85,0,0,0,.08.47.44.44,0,0,1,.06.16.31.31,0,0,1-.06.27Z"/><path class="cls-6" d="M17,10.74c0,.36.22.51.18.84.08-.26-.12-.46-.11-.83Z"/><path class="cls-5" d="M16.78,8.7a1.09,1.09,0,1,1-1.09,1.09A1.09,1.09,0,0,1,16.78,8.7Z"/><path class="cls-6" d="M16.78,10.88a1.1,1.1,0,1,1,1.1-1.09,1.09,1.09,0,0,1-1.1,1.09Zm0-2.17a1.08,1.08,0,1,0,1.08,1.08,1.08,1.08,0,0,0-1.08-1.08Z"/><path class="cls-6" d="M17.47,9.55a.44.44,0,0,0-.57-.06.34.34,0,0,0,0,.44h0a.52.52,0,0,1,0-.47.4.4,0,0,1,.62.08Z"/><path class="cls-6" d="M17.17,9.5a.23.23,0,0,0-.19.07c-.05,0-.07,0-.08,0s0,0,0,0L17,9.57a.2.2,0,0,1,.15,0,.42.42,0,0,1,.25.12.28.28,0,0,0-.25-.15Z"/><path class="cls-6" d="M17.36,9.65a.26.26,0,0,0-.4,0h0c.08-.13.29-.07.3,0h.06Z"/><path class="cls-6" d="M17.15,9.56a.09.09,0,0,1,.08.08.08.08,0,0,1-.16,0,.09.09,0,0,1,.08-.08Z"/><path class="cls-6" d="M17,9.65a.34.34,0,0,0,.4,0H17.3a.22.22,0,0,1-.3,0h0Z"/><path class="cls-6" d="M17.37,9.69a.33.33,0,0,1-.37.05c-.09-.05-.09-.07-.07-.07l.1.05a.47.47,0,0,0,.34,0Z"/><path class="cls-6" d="M17,9.94s0,0,0,.06a0,0,0,0,1-.06,0,0,0,0,0,1,0,0,.14.14,0,0,1-.11.06h0v0a.14.14,0,0,0,.1,0,.08.08,0,0,0,.11,0A.08.08,0,0,0,17,10s0,0,0,0Z"/><path class="cls-6" d="M17.05,10.29c-.07,0-.1-.13-.19-.13l-.08,0h0v0s.08,0,.15,0l.12.08Z"/><path class="cls-6" d="M17,10.29a.46.46,0,0,0-.25,0h0v0c.07,0,.1-.05.25,0Z"/><path class="cls-6" d="M17.05,10.29c-.17,0-.12.09-.27.09h0v0c.18,0,.1-.1.27-.12Z"/><path class="cls-6" d="M16.93,10.56a.15.15,0,1,0-.3,0,.15.15,0,0,1,.19-.12.15.15,0,0,1,.11.12Z"/><path class="cls-6" d="M16.09,9.55a.44.44,0,0,1,.57-.06.35.35,0,0,1,0,.44h0a.56.56,0,0,0,0-.47.4.4,0,0,0-.62.08Z"/><path class="cls-6" d="M16.4,9.5a.23.23,0,0,1,.18.07c.05,0,.07,0,.08,0s0,0,0,0l-.11-.07a.18.18,0,0,0-.14,0,.47.47,0,0,0-.26.12.29.29,0,0,1,.26-.15Z"/><path class="cls-6" d="M16.2,9.65a.26.26,0,0,1,.4,0h0c-.08-.13-.28-.07-.29,0H16.2Z"/><path class="cls-6" d="M16.41,9.56a.08.08,0,0,0-.07.08.07.07,0,0,0,.07.07.08.08,0,0,0,.08-.07.09.09,0,0,0-.08-.08Z"/><path class="cls-6" d="M16.6,9.65a.34.34,0,0,1-.4,0h.07a.21.21,0,0,0,.29,0h0Z"/><path class="cls-6" d="M16.19,9.69a.33.33,0,0,0,.37.05c.09-.05.09-.07.07-.07l-.1.05a.47.47,0,0,1-.34,0Z"/><path class="cls-6" d="M16.61,9.94a0,0,0,0,0,0,.06s0,0,.06,0,0,0,0,0a.14.14,0,0,0,.11.06h0l0,0a.16.16,0,0,1-.1,0,.07.07,0,0,1-.1,0,.09.09,0,0,1,0-.11.09.09,0,0,1,.06,0Z"/><path class="cls-6" d="M16.5,10.29c.08,0,.11-.13.2-.13l.08,0h0l0,0s-.08,0-.14,0l-.14.08Z"/><path class="cls-6" d="M16.53,10.29a.46.46,0,0,1,.25,0h0l0,0c-.07,0-.1-.05-.25,0Z"/><path class="cls-6" d="M16.5,10.29c.19,0,.13.09.28.09h0l0,0c-.18,0-.1-.1-.28-.12Z"/><path class="cls-6" d="M16.63,10.56a.15.15,0,1,1,.3,0,.15.15,0,0,0-.19-.12.17.17,0,0,0-.11.12Z"/></g></g></g></g></g></svg>