<svg width="34" height="36" viewBox="0 0 34 36" fill="none" xmlns="http://www.w3.org/2000/svg">
<path d="M5.01465 22.5814V2.64298C5.01465 1.51155 5.90414 0.59375 7.00067 0.59375H22.8888C23.3872 0.59375 23.8626 0.78364 24.2307 1.12386L32.7805 9.1388C33.1946 9.5265 33.4323 10.0803 33.4323 10.6579V33.3498C33.4323 34.4812 32.5428 35.399 31.4463 35.399H7.00067C5.90414 35.399 5.01465 34.4812 5.01465 33.3498V32.6535" fill="white"/>
<path d="M5.01465 22.5814V2.64298C5.01465 1.51155 5.90414 0.59375 7.00067 0.59375H22.8888C23.3872 0.59375 23.8626 0.78364 24.2307 1.12386L32.7805 9.1388C33.1946 9.5265 33.4323 10.0803 33.4323 10.6579V33.3498C33.4323 34.4812 32.5428 35.399 31.4463 35.399H7.00067C5.90414 35.399 5.01465 34.4812 5.01465 33.3498V32.6535" stroke="black" stroke-width="0.4" stroke-miterlimit="10" stroke-linecap="round"/>
<path d="M23.6636 1.51074C23.6636 3.55206 23.6636 5.59338 23.6636 7.6347C23.6636 8.80569 24.2157 9.75514 24.8981 9.75514C27.4439 9.75514 29.9974 9.75514 32.5431 9.75514" stroke="black" stroke-width="0.4" stroke-miterlimit="10" stroke-linecap="round"/>
<path d="M23.2644 32.661H2.74476C1.54855 32.661 0.574707 31.6561 0.574707 30.4218V24.828C0.574707 23.5937 1.54855 22.5889 2.74476 22.5889H23.2567C24.4529 22.5889 25.4268 23.5937 25.4268 24.828V30.4218C25.4344 31.6561 24.4606 32.661 23.2644 32.661Z" fill="#FFC773" stroke="black" stroke-width="0.4" stroke-miterlimit="10" stroke-linecap="round"/>
<path d="M4 30.4967C4 30.2053 4.20979 30 4.5035 30C4.7972 30 5 30.2053 5 30.4967C5 30.7815 4.8042 31 4.4965 31C4.2028 31 4 30.7815 4 30.4967Z" fill="black"/>
<path d="M10.58 25.84C10.58 26.2333 10.4867 26.5633 10.3 26.83C10.12 27.09 9.88667 27.27 9.6 27.37C9.95333 27.4567 10.2433 27.6567 10.47 27.97C10.7033 28.2767 10.82 28.6533 10.82 29.1C10.82 29.7 10.62 30.19 10.22 30.57C9.81333 30.9433 9.29 31.13 8.65 31.13C7.96333 31.13 7.42333 30.9433 7.03 30.57C6.63667 30.19 6.44 29.6633 6.44 28.99H7.34C7.34667 29.4167 7.46667 29.74 7.7 29.96C7.93333 30.1733 8.25667 30.28 8.67 30.28C9.03667 30.28 9.33333 30.17 9.56 29.95C9.78667 29.73 9.9 29.4367 9.9 29.07C9.9 28.65 9.75667 28.33 9.47 28.11C9.18333 27.89 8.77667 27.78 8.25 27.78H8.02V26.98H8.24C8.73333 26.98 9.09333 26.89 9.32 26.71C9.54667 26.53 9.66 26.2467 9.66 25.86C9.66 25.5 9.57 25.22 9.39 25.02C9.21 24.82 8.95 24.72 8.61 24.72C8.27667 24.72 8.00667 24.83 7.8 25.05C7.6 25.2633 7.5 25.5733 7.5 25.98H6.59C6.59 25.3333 6.77 24.82 7.13 24.44C7.49667 24.06 7.98667 23.87 8.6 23.87C9.21333 23.87 9.69667 24.0567 10.05 24.43C10.4033 24.8033 10.58 25.2733 10.58 25.84ZM16.5723 31H15.8023L15.7523 30.26C15.3656 30.8267 14.7889 31.11 14.0223 31.11C13.3223 31.11 12.7556 30.8633 12.3223 30.37C11.8889 29.8633 11.6723 29.2333 11.6723 28.48C11.6723 27.7333 11.8889 27.1067 12.3223 26.6C12.7623 26.1 13.3323 25.85 14.0323 25.85C14.7989 25.85 15.3589 26.1167 15.7123 26.65V23.7H16.5723V31ZM14.1623 26.67C13.6956 26.67 13.3123 26.84 13.0123 27.18C12.7123 27.5067 12.5623 27.94 12.5623 28.48C12.5623 29.02 12.7056 29.46 12.9923 29.8C13.2856 30.1333 13.6723 30.3 14.1523 30.3C14.5789 30.3 14.9456 30.1367 15.2523 29.81C15.5656 29.4767 15.7223 29.05 15.7223 28.53V28.48C15.7223 27.94 15.5656 27.5033 15.2523 27.17C14.9389 26.8367 14.5756 26.67 14.1623 26.67ZM19.5181 25.85C19.9981 25.85 20.3915 25.9967 20.6981 26.29C21.0048 26.5767 21.1648 26.96 21.1781 27.44H20.2981C20.2915 26.9133 20.0248 26.65 19.4981 26.65C19.2515 26.65 19.0615 26.7133 18.9281 26.84C18.7948 26.96 18.7281 27.1233 18.7281 27.33C18.7281 27.53 18.7915 27.68 18.9181 27.78C19.0515 27.88 19.3048 27.9733 19.6781 28.06C20.2781 28.2 20.7015 28.3867 20.9481 28.62C21.2015 28.8467 21.3281 29.1633 21.3281 29.57C21.3281 30.0433 21.1648 30.42 20.8381 30.7C20.5115 30.9733 20.0848 31.11 19.5581 31.11C18.9915 31.11 18.5448 30.9633 18.2181 30.67C17.8981 30.3767 17.7315 29.9767 17.7181 29.47H18.5981C18.6115 30.03 18.9381 30.31 19.5781 30.31C19.8515 30.31 20.0648 30.25 20.2181 30.13C20.3715 30.0033 20.4481 29.8367 20.4481 29.63C20.4481 29.4167 20.3748 29.2533 20.2281 29.14C20.0815 29.02 19.8048 28.9133 19.3981 28.82C18.8515 28.6933 18.4548 28.52 18.2081 28.3C17.9681 28.08 17.8481 27.7733 17.8481 27.38C17.8481 26.9533 17.9948 26.5933 18.2881 26.3C18.5881 26 18.9981 25.85 19.5181 25.85Z" fill="#333333"/>
<path d="M11.4148 6.34069L9.34073 8.41476C9.26666 8.48883 9.22221 8.59254 9.22221 8.69624V17.3777C9.22221 17.5999 9.39999 17.7777 9.62221 17.7777H18.3007C18.4074 17.7777 18.5081 17.7362 18.5822 17.6592L20.6593 15.5822C20.7333 15.5081 20.7778 15.4044 20.7778 15.3007V6.62217C20.7778 6.39995 20.6 6.22217 20.3778 6.22217H11.6993C11.5926 6.22217 11.4918 6.26365 11.4148 6.34069Z" stroke="black" stroke-width="0.4" stroke-miterlimit="10"/>
<path d="M9.22221 8.58667H18.4133V17.7778" stroke="black" stroke-width="0.4" stroke-miterlimit="10"/>
<path d="M18.4133 8.58677L20.6355 6.31714" stroke="black" stroke-width="0.4" stroke-miterlimit="10"/>
</svg>
