<svg width="34" height="36" viewBox="0 0 34 36" fill="none" xmlns="http://www.w3.org/2000/svg">
<path d="M5.01465 22.5814V2.64298C5.01465 1.51155 5.90414 0.59375 7.00067 0.59375H22.8888C23.3872 0.59375 23.8626 0.78364 24.2307 1.12386L32.7805 9.1388C33.1946 9.5265 33.4323 10.0803 33.4323 10.6579V33.3498C33.4323 34.4812 32.5428 35.399 31.4463 35.399H7.00067C5.90414 35.399 5.01465 34.4812 5.01465 33.3498V32.6535" fill="#F0F0F0"/>
<path d="M5.01465 22.5814V2.64298C5.01465 1.51155 5.90414 0.59375 7.00067 0.59375H22.8888C23.3872 0.59375 23.8626 0.78364 24.2307 1.12386L32.7805 9.1388C33.1946 9.5265 33.4323 10.0803 33.4323 10.6579V33.3498C33.4323 34.4812 32.5428 35.399 31.4463 35.399H7.00067C5.90414 35.399 5.01465 34.4812 5.01465 33.3498V32.6535" stroke="black" stroke-width="0.4" stroke-miterlimit="10" stroke-linecap="round"/>
<path d="M23.6636 1.51074C23.6636 3.55206 23.6636 5.59338 23.6636 7.6347C23.6636 8.80569 24.2157 9.75514 24.8981 9.75514C27.4439 9.75514 29.9974 9.75514 32.5431 9.75514" stroke="black" stroke-width="0.4" stroke-miterlimit="10" stroke-linecap="round"/>
<path d="M23.2644 32.661H2.74476C1.54855 32.661 0.574707 31.6561 0.574707 30.4218V24.828C0.574707 23.5937 1.54855 22.5889 2.74476 22.5889H23.2567C24.4529 22.5889 25.4268 23.5937 25.4268 24.828V30.4218C25.4344 31.6561 24.4606 32.661 23.2644 32.661Z" fill="#CCCCCC" stroke="black" stroke-width="0.4" stroke-miterlimit="10" stroke-linecap="round"/>
<path d="M4 30.4967C4 30.2053 4.20979 30 4.5035 30C4.7972 30 5 30.2053 5 30.4967C5 30.7815 4.8042 31 4.4965 31C4.2028 31 4 30.7815 4 30.4967Z" fill="black"/>
<path d="M7.62 26.65C7.97333 26.1167 8.53333 25.85 9.3 25.85C10.0067 25.85 10.5733 26.1 11 26.6C11.44 27.1 11.66 27.7267 11.66 28.48C11.66 29.2333 11.4433 29.8633 11.01 30.37C10.5767 30.8633 10.01 31.11 9.31 31.11C8.54333 31.11 7.96667 30.8267 7.58 30.26L7.53 31H6.76V23.7H7.62V26.65ZM9.17 26.67C8.75 26.67 8.38333 26.8367 8.07 27.17C7.76333 27.4967 7.61 27.9333 7.61 28.48V28.53C7.61 29.0567 7.76333 29.4833 8.07 29.81C8.37667 30.1367 8.74667 30.3 9.18 30.3C9.66 30.3 10.0433 30.1333 10.33 29.8C10.6233 29.46 10.77 29.02 10.77 28.48C10.77 27.94 10.62 27.5067 10.32 27.18C10.02 26.84 9.63667 26.67 9.17 26.67ZM13.8259 24.41C13.8259 24.57 13.7659 24.7067 13.6459 24.82C13.5325 24.9333 13.3925 24.99 13.2259 24.99C13.0592 24.99 12.9192 24.9333 12.8059 24.82C12.6925 24.7067 12.6359 24.57 12.6359 24.41C12.6359 24.2433 12.6925 24.1033 12.8059 23.99C12.9192 23.8767 13.0592 23.82 13.2259 23.82C13.3925 23.82 13.5325 23.8767 13.6459 23.99C13.7659 24.1033 13.8259 24.2433 13.8259 24.41ZM13.6559 31H12.7959V25.96H13.6559V31ZM20.4173 25.85C20.9373 25.85 21.3373 26.02 21.6173 26.36C21.9039 26.7 22.0473 27.16 22.0473 27.74V31H21.1873V27.88C21.1873 27.5 21.1006 27.2067 20.9273 27C20.7606 26.7933 20.5239 26.69 20.2173 26.69C19.8773 26.69 19.6006 26.83 19.3873 27.11C19.1739 27.3833 19.0639 27.7567 19.0573 28.23V31H18.1973V27.88C18.1973 27.5 18.1106 27.2067 17.9373 27C17.7706 26.7933 17.5339 26.69 17.2273 26.69C16.8806 26.69 16.6006 26.8367 16.3873 27.13C16.1739 27.4167 16.0673 27.8067 16.0673 28.3V31H15.2073V25.96H15.9773L16.0273 26.65C16.1539 26.41 16.3373 26.2167 16.5773 26.07C16.8239 25.9233 17.1073 25.85 17.4273 25.85C18.1473 25.85 18.6373 26.17 18.8973 26.81C19.2306 26.17 19.7373 25.85 20.4173 25.85Z" fill="#333333"/>
<path d="M11.4148 6.34069L9.34073 8.41476C9.26666 8.48883 9.22221 8.59254 9.22221 8.69624V17.3777C9.22221 17.5999 9.39999 17.7777 9.62221 17.7777H18.3007C18.4074 17.7777 18.5081 17.7362 18.5822 17.6592L20.6593 15.5822C20.7333 15.5081 20.7778 15.4044 20.7778 15.3007V6.62217C20.7778 6.39995 20.6 6.22217 20.3778 6.22217H11.6993C11.5926 6.22217 11.4918 6.26365 11.4148 6.34069Z" stroke="black" stroke-width="0.4" stroke-miterlimit="10"/>
<path d="M9.22221 8.58667H18.4133V17.7778" stroke="black" stroke-width="0.4" stroke-miterlimit="10"/>
<path d="M18.4133 8.58677L20.6355 6.31714" stroke="black" stroke-width="0.4" stroke-miterlimit="10"/>
</svg>
