<svg width="97" height="113" viewBox="0 0 97 113" fill="none" xmlns="http://www.w3.org/2000/svg">
<g clip-path="url(#clip0)">
<path d="M27.54 80.92V82.91" stroke="#F1F1F1" stroke-width="1.4" stroke-miterlimit="10"/>
<path d="M11.7002 30.62C11.7002 25.71 16.1702 21.84 21.2602 22.86C24.9902 23.61 27.5402 27.11 27.5402 30.92V80.92" stroke="#F1F1F1" stroke-width="1.4" stroke-miterlimit="10"/>
<path d="M27.5405 82.91C27.5405 82.7 27.5305 82.5 27.5205 82.3" stroke="#F1F1F1" stroke-width="1.4" stroke-miterlimit="10"/>
<path d="M27.5202 82.29C27.2002 78.16 23.7102 74.91 19.4802 74.98C15.2502 75.05 11.6902 78.69 11.7002 82.92C11.7102 87.28 15.2502 90.82 19.6202 90.82C19.7802 90.82 19.9502 90.82 20.1102 90.81" stroke="#F1F1F1" stroke-width="1.4" stroke-miterlimit="10" stroke-linecap="round"/>
<path d="M11.7002 30.62V82.91" stroke="#F1F1F1" stroke-width="1.4" stroke-miterlimit="10"/>
<path d="M19.6201 90.83H83.8201C85.1201 90.83 86.1701 89.78 86.1701 88.48V31.38C86.1701 30.08 85.1201 29.03 83.8201 29.03H27.5401" stroke="#F1F1F1" stroke-width="1.4" stroke-miterlimit="10"/>
<path d="M77.8698 82.11H34.2598C33.6198 82.11 33.0898 81.59 33.0898 80.94V37.33C33.0898 36.69 33.6098 36.16 34.2598 36.16H77.8698C78.5098 36.16 79.0398 36.68 79.0398 37.33V80.94C79.0398 81.59 78.5098 82.11 77.8698 82.11Z" stroke="#F1F1F1" stroke-width="1.4" stroke-miterlimit="10"/>
<path d="M52.4002 41.87L54.5202 54.61C54.6502 55.4 55.6202 55.71 56.1802 55.14L58.1302 53.19C58.5102 52.81 59.1302 52.81 59.5202 53.19L68.7802 62.45C69.1602 62.83 69.7802 62.83 70.1702 62.45L74.1102 58.51C74.4902 58.13 74.4902 57.51 74.1102 57.12L64.8502 47.86C64.4702 47.48 64.4702 46.86 64.8502 46.47L66.8002 44.52C67.3602 43.96 67.0502 42.99 66.2702 42.86L53.5302 40.74C52.8702 40.63 52.2902 41.21 52.4002 41.87Z" stroke="#F1F1F1" stroke-width="1.4" stroke-miterlimit="10" stroke-linecap="round"/>
</g>
<defs>
<clipPath id="clip0">
<rect width="75.87" height="69.53" fill="white" transform="translate(11 22)"/>
</clipPath>
</defs>
</svg>
