<svg width="177" height="39" viewBox="0 0 177 39" fill="none" xmlns="http://www.w3.org/2000/svg">
<path d="M1.22998 8.8623C1.22998 12.9649 5.11998 15.6931 12.17 16.5238L19.14 17.3546C21.82 17.652 25.02 18.3495 25.02 20.052C25.02 21.7546 21.59 23.0879 17.04 23.0879C9.91998 23.0879 7.71999 20.811 6.60999 18.8213L6.41003 18.4726L0 20.2264L0.160034 20.6879C0.790034 22.4726 3.88 28.2777 16.88 28.2777C26.32 28.2777 31.73 25.1187 31.73 19.6008C31.73 15.3443 28.19 12.8008 20.91 11.8367L14.02 10.9443C7.94002 10.2879 7.94 9.07768 7.94 8.56486C7.94 6.57512 11.83 5.86742 15.16 5.86742C22.46 5.86742 24.21 8.09307 24.9 9.77512L25.07 10.1956L31.42 8.38025L31.23 7.91871C30.49 6.14435 28.28 0.811016 15.32 0.811016C6.24001 0.811016 1.22998 3.67255 1.22998 8.8623Z" fill="white"/>
<path d="M1.51984 8.8623C1.51984 12.8828 5.35983 15.5495 12.3298 16.3802L19.2998 17.211C22.0498 17.5084 25.3198 18.2469 25.3198 20.052C25.3198 21.8572 21.8998 23.252 17.1898 23.252C9.99982 23.252 7.75981 20.9341 6.61981 18.9136L6.4798 18.6674L0.339844 20.3392L0.449829 20.6367C1.07983 22.4008 4.11985 28.1443 17.0298 28.1443C26.3798 28.1443 31.7398 25.0367 31.7398 19.6213C31.7398 15.4674 28.2398 12.9649 21.0498 12.0008L14.1599 11.1085C7.93985 10.4213 7.93982 9.15973 7.93982 8.54435C7.93982 6.44178 11.7498 5.69307 15.3098 5.69307C22.6998 5.69307 24.4798 7.98025 25.1798 9.69307L25.2998 9.9905L31.3798 8.25717L31.2498 7.95973C30.5198 6.23666 28.3398 0.975118 15.4698 0.975118C6.46985 0.964861 1.51984 3.78537 1.51984 8.8623Z" fill="#117BC1"/>
<path d="M50.6396 17.5495C50.6396 24.0726 55.7896 28.2777 63.7596 28.2777C72.2496 28.2777 75.3396 23.2828 75.7596 21.529L75.8896 20.9546H69.3297L69.1996 21.252C68.6196 22.4213 66.7997 23.7854 63.5997 23.7854C59.9597 23.6623 57.7597 22.1546 57.0297 19.3341H76.1696V18.8623C76.1696 11.252 71.6296 7.0264 63.3796 6.95461C54.5796 6.92384 50.6396 12.2572 50.6396 17.5495ZM63.2697 11.4367C66.6897 11.4367 68.6696 12.5546 69.4996 14.9341H57.2697C58.1797 12.5854 60.1397 11.4367 63.2697 11.4367Z" fill="white"/>
<path d="M50.79 17.5495C50.79 23.9802 55.8801 28.1341 63.7601 28.1341C72.1601 28.1341 75.2101 23.2213 75.6201 21.4982L75.7101 21.0982H69.42L69.3201 21.2931C68.7201 22.4931 66.8601 23.9085 63.5901 23.9085C59.7501 23.7751 57.5101 22.1546 56.8301 19.1597H76.0301V18.8315C76.0301 11.3238 71.5401 7.13922 63.3901 7.06743C54.6901 7.07768 50.79 12.3392 50.79 17.5495ZM63.2701 11.2931C66.8901 11.2931 68.9101 12.5341 69.7101 15.0879H57.05C57.93 12.5649 59.9401 11.2931 63.2701 11.2931Z" fill="#117BC1"/>
<path d="M82.1796 7.56998H75.8096L84.9396 27.6418H90.4396L95.6996 15.1084L100.96 27.6418H106.55L115.6 7.56998H109.3L103.8 20.1854L98.3296 7.56998H93.1196L87.7096 20.1649L82.2796 7.56998H82.1796Z" fill="white"/>
<path d="M114.83 7.71358H109.4L103.8 20.5444L98.23 7.71358H93.2001C93.2001 7.71358 88.3401 19.0777 87.7101 20.5238L82.1901 7.71358H76.04L85.04 27.4879H90.36C90.36 27.4879 95.1001 16.1956 95.7201 14.7187C96.3401 16.2059 101.07 27.4879 101.07 27.4879H106.47L115.38 7.71358H114.83Z" fill="#117BC1"/>
<path d="M116.45 13.3854L116.32 13.9803H122.66L122.76 13.6213C122.91 13.0879 123.35 11.4572 128.2 11.4572C131.64 11.4572 133.38 12.1341 133.38 13.4674V13.8777C127.83 14.1751 115.2 14.8623 115.2 22.052C115.2 26.9854 120.89 28.2879 124.25 28.2879C127.46 28.2572 130.62 27.4674 133.48 25.9905L133.73 27.6931L134.19 27.652H140.27L139.84 26.9443C139.71 26.729 139.5 26.0828 139.5 24.0828V14.5341C139.5 12.0726 139.5 6.9341 128.15 6.9341C123.52 6.92384 117.72 8.04179 116.45 13.3854ZM121.84 21.7956V21.7238C121.87 20.3495 123.11 19.5495 126.11 18.9341C128.51 18.4418 130.95 18.1444 133.4 18.0418V21.611C131.3 22.6879 128.48 23.9187 125 23.9187C123.84 23.9187 122.94 23.6726 122.41 23.2008C122.02 22.8418 121.82 22.329 121.84 21.7956Z" fill="white"/>
<path d="M116.6 13.4161L116.51 13.8161H122.56L122.63 13.5597C122.79 12.9956 123.26 11.2828 128.21 11.2828C131.74 11.2828 133.54 12.011 133.54 13.4469V14.0008C127.83 14.2982 115.36 15.0367 115.36 22.0213C115.36 26.8315 120.96 28.1238 124.27 28.1238C128.56 28.1238 131.72 26.6879 133.61 25.7443L133.87 27.5085L134.2 27.4777H140.04L139.75 26.9956C139.58 26.729 139.38 25.9905 139.38 24.052V14.5238C139.38 12.1033 139.38 7.07768 128.17 7.07768C123.58 7.07768 117.84 8.17512 116.6 13.4161ZM122.33 23.3136C121.91 22.9341 121.68 22.3802 121.7 21.7956V21.7238C121.73 20.2674 123 19.4161 126.09 18.7905C128.55 18.2777 131.04 17.97 133.55 17.8674V21.7033C131.4 22.8213 128.52 24.0623 125.02 24.0623C123.8 24.0623 122.88 23.8059 122.33 23.3136Z" fill="#117BC1"/>
<path d="M157.45 6.92384C154.33 6.92384 151.88 7.86742 150.13 9.70332V7.55973H144V27.6315H150.13V17.0161C150.17 15.529 150.26 12.3905 156.13 12.3597C157.08 12.3495 158.03 12.4418 158.96 12.6572L159.58 12.8008L159.77 12.2674V7.0264L157.45 6.92384Z" fill="white"/>
<path d="M149.98 10.0623V7.71358H144.14V27.4879H149.98V17.0161C150.02 15.529 150.12 12.2469 156.13 12.2161C157.1 12.2059 158.06 12.3085 159.01 12.5238L159.48 12.6264L159.62 12.2367V7.14948L157.44 7.06743C153.5 7.07769 151.28 8.57512 149.98 10.0623Z" fill="#117BC1"/>
<path d="M168.59 2.70845H162.6V22.2469C162.6 26.4008 165.08 28.2777 170.63 28.2777C172.399 28.2572 174.16 28.1238 175.909 27.8777L176.649 27.7956V22.8828L175.999 23.0367C174.609 23.3443 173.2 23.5084 171.78 23.5495C169.67 23.5495 168.73 22.8315 168.73 21.211V12.2367H176.709V7.50845H168.74V2.6982H168.59V2.70845Z" fill="white"/>
<path d="M162.75 2.85204V22.2469C162.75 26.3084 165.18 28.1238 170.63 28.1238C172.39 28.1033 174.15 27.97 175.9 27.7238L176.51 27.652V23.0572L176.04 23.17C174.64 23.4777 173.22 23.652 171.79 23.6931C169.61 23.6931 168.6 22.9033 168.6 21.211V12.1033H176.58V7.6623H168.6V2.85204H162.75V2.85204Z" fill="#117BC1"/>
<path d="M40.8601 2.70845H34.8701V22.2469C34.8701 26.4008 37.3501 28.2777 42.9001 28.2777C44.6701 28.2572 46.4301 28.1238 48.1801 27.8777L48.9201 27.7956V22.8828L48.2601 23.0367C46.8701 23.3443 45.4601 23.5084 44.0501 23.5495C41.9401 23.5495 41.0001 22.8315 41.0001 21.211V12.2367H48.9801V7.50845H41.0001V2.6982H40.8601V2.70845Z" fill="white"/>
<path d="M35.0195 2.85204V22.2469C35.0195 26.3084 37.4495 28.1238 42.9095 28.1238C44.6695 28.1033 46.4295 27.97 48.1795 27.7238L48.7895 27.652V23.0572L48.3095 23.17C46.9095 23.4777 45.4895 23.652 44.0595 23.6931C41.8795 23.6931 40.8695 22.9033 40.8695 21.211V12.1033H48.8395V7.6623H40.8595V2.85204H35.0195V2.85204Z" fill="#117BC1"/>
<path d="M2.66992 32.329H7.20996V33.5495H3.97992V34.852H6.81995V36.0726H3.97992V38.452H2.66992V32.329Z" fill="#333333"/>
<path d="M21.4297 32.329H22.7397V38.4418H21.4297V32.329Z" fill="#333333"/>
<path d="M37.3398 32.329H38.6498V37.2213H41.6198V38.4418H37.3398V32.329Z" fill="#333333"/>
<path d="M55.7305 32.329H57.1405L58.7105 34.9136L60.2805 32.329H61.7005V38.4418H60.4005V34.452L58.7105 37.0572H58.6805L57.0205 34.4726V38.4418H55.7305V32.329V32.329Z" fill="#333333"/>
<path d="M75.8203 37.5495L76.6003 36.5956C77.0903 37.0572 77.7203 37.3238 78.3803 37.3341C78.9203 37.3341 79.2503 37.1187 79.2503 36.7597V36.7495C79.2503 36.411 79.0403 36.2367 78.0503 35.97C76.8503 35.652 76.0703 35.3136 76.0703 34.1033V34.0726C76.0703 32.9649 76.9403 32.2264 78.1603 32.2264C78.9603 32.2161 79.7503 32.4931 80.3703 33.0059L79.6903 34.0213C79.2403 33.6726 78.7003 33.4572 78.1403 33.4264C77.6403 33.4264 77.3703 33.6623 77.3703 33.9597V33.9802C77.3703 34.3802 77.6203 34.5136 78.6603 34.7802C79.8703 35.1085 80.5503 35.5495 80.5503 36.6161V36.6367C80.5503 37.8469 79.6503 38.5341 78.3603 38.5341C77.4203 38.5443 76.5203 38.1854 75.8203 37.5495Z" fill="#333333"/>
<path d="M94.5298 35.4059V35.3854C94.4998 33.6726 95.8298 32.2572 97.5098 32.2264C97.5498 32.2264 97.5998 32.2264 97.6398 32.2264C98.5198 32.1854 99.3797 32.5238 99.9897 33.17L99.1598 34.1546C98.7598 33.7341 98.2098 33.4777 97.6398 33.4674C96.6598 33.4777 95.8898 34.3085 95.8998 35.3033C95.8998 35.3238 95.8998 35.3444 95.8998 35.3649V35.3854C95.8998 36.4315 96.6098 37.3033 97.6398 37.3033C98.2398 37.2931 98.7998 37.0367 99.2098 36.5854L100.04 37.4469C99.4297 38.1751 98.5298 38.5751 97.5998 38.5444C95.9398 38.5751 94.5697 37.211 94.5397 35.5085C94.5297 35.4777 94.5298 35.4367 94.5298 35.4059Z" fill="#333333"/>
<path d="M114.19 32.329H116.92C117.56 32.2879 118.18 32.5136 118.66 32.9546C119.01 33.3341 119.19 33.8367 119.17 34.3495V34.3802C119.21 35.2315 118.69 36.011 117.89 36.2777L119.34 38.4623H117.81L116.53 36.5033H115.5V38.4623H114.19V32.329ZM116.83 35.2931C117.47 35.2931 117.83 34.9443 117.83 34.4315V34.411C117.83 33.8367 117.44 33.5392 116.8 33.5392H115.5V35.2931H116.83Z" fill="#333333"/>
<path d="M133.46 32.329H137.95V33.5187H134.76V34.7597H137.56V35.9495H134.75V37.2315H137.98V38.4213H133.44V32.329H133.46Z" fill="#333333"/>
<path d="M152.28 32.329H156.77V33.5187H153.58V34.7597H156.39V35.9495H153.58V37.2315H156.81V38.4213H152.27V32.329H152.28Z" fill="#333333"/>
<path d="M171.1 32.329H172.31L175.1 36.0931V32.329H176.38V38.4418H175.27L172.37 34.5546V38.4418H171.08L171.1 32.329Z" fill="#333333"/>
</svg>
