<svg width="27" height="23" viewBox="0 0 27 23" fill="none" xmlns="http://www.w3.org/2000/svg">
<path d="M13.5312 1C13.5312 21.5532 13.5312 22.2404 13.5312 22.2404" stroke="white" stroke-width="0.7" stroke-miterlimit="10"/>
<path d="M6.65918 1C6.65918 21.5657 6.65918 21.3158 6.65918 22.2404" stroke="white" stroke-width="0.7" stroke-miterlimit="10"/>
<path d="M26.6502 6.62207C1.24923 6.62207 1.55534 6.62207 0.412109 6.62207" stroke="white" stroke-width="0.7" stroke-miterlimit="10"/>
<path d="M26.6502 11.6201C1.24923 11.6201 1.55534 11.6201 0.412109 11.6201" stroke="white" stroke-width="0.7" stroke-miterlimit="10"/>
<path d="M26.6502 16.6182C1.24923 16.6182 1.55534 16.6182 0.412109 16.6182" stroke="white" stroke-width="0.7" stroke-miterlimit="10"/>
<path d="M19.7783 1C19.7783 21.5657 19.7783 21.3158 19.7783 22.2404" stroke="white" stroke-width="0.7" stroke-miterlimit="10"/>
<path d="M25.7069 22.2404H1.35543C0.836917 22.2404 0.412109 21.8156 0.412109 21.2971V1.94332C0.412109 1.42481 0.836917 1 1.35543 1H25.7069C26.2254 1 26.6502 1.42481 26.6502 1.94332V21.2971C26.6502 21.8156 26.2254 22.2404 25.7069 22.2404Z" stroke="white" stroke-width="0.7" stroke-miterlimit="10"/>
</svg>
