<svg width="34" height="36" viewBox="0 0 34 36" fill="none" xmlns="http://www.w3.org/2000/svg">
<path d="M5.01465 22.5814V2.64298C5.01465 1.51155 5.90414 0.59375 7.00067 0.59375H22.8888C23.3872 0.59375 23.8626 0.78364 24.2307 1.12386L32.7805 9.1388C33.1946 9.5265 33.4323 10.0803 33.4323 10.6579V33.3498C33.4323 34.4812 32.5428 35.399 31.4463 35.399H7.00067C5.90414 35.399 5.01465 34.4812 5.01465 33.3498V32.6535" fill="white"/>
<path d="M5.01465 22.5814V2.64298C5.01465 1.51155 5.90414 0.59375 7.00067 0.59375H22.8888C23.3872 0.59375 23.8626 0.78364 24.2307 1.12386L32.7805 9.1388C33.1946 9.5265 33.4323 10.0803 33.4323 10.6579V33.3498C33.4323 34.4812 32.5428 35.399 31.4463 35.399H7.00067C5.90414 35.399 5.01465 34.4812 5.01465 33.3498V32.6535" stroke="black" stroke-width="0.4" stroke-miterlimit="10" stroke-linecap="round"/>
<path d="M23.6636 1.51074C23.6636 3.55206 23.6636 5.59338 23.6636 7.6347C23.6636 8.80569 24.2157 9.75514 24.8981 9.75514C27.4439 9.75514 29.9974 9.75514 32.5431 9.75514" stroke="black" stroke-width="0.4" stroke-miterlimit="10" stroke-linecap="round"/>
<path d="M23.2644 32.661H2.74476C1.54855 32.661 0.574707 31.6561 0.574707 30.4218V24.828C0.574707 23.5937 1.54855 22.5889 2.74476 22.5889H23.2567C24.4529 22.5889 25.4268 23.5937 25.4268 24.828V30.4218C25.4344 31.6561 24.4606 32.661 23.2644 32.661Z" fill="#B3EDFF" stroke="black" stroke-width="0.4" stroke-miterlimit="10" stroke-linecap="round"/>
<path d="M4 30.4967C4 30.2053 4.20979 30 4.5035 30C4.7972 30 5 30.2053 5 30.4967C5 30.7815 4.8042 31 4.4965 31C4.2028 31 4 30.7815 4 30.4967Z" fill="black"/>
<path d="M9.96351 24V29.6809C9.96351 30.1017 9.9708 30.5711 10 30.8948H9.3066L9.27011 30.0775H9.25551C9.01464 30.6035 8.50372 31 7.81032 31C6.78847 31 6.00018 30.037 6.00018 28.6127C5.98558 27.0509 6.86146 26.0879 7.8979 26.0879C8.54751 26.0879 8.98545 26.4277 9.17522 26.8081H9.18982V24H9.96351ZM9.18982 28.1029C9.18982 27.9977 9.18252 27.852 9.15332 27.7468C9.04384 27.2046 8.6205 26.7595 8.04388 26.7595C7.2483 26.7595 6.77387 27.5364 6.77387 28.5723C6.77387 29.5191 7.19721 30.3121 8.02929 30.3121C8.54751 30.3121 9.01464 29.9318 9.16062 29.2925C9.18982 29.1792 9.19712 29.0578 9.19712 28.9202V28.1029H9.18982Z" fill="black"/>
<path d="M11.8874 26L12.5261 28.5387C12.6671 29.0981 12.7915 29.6145 12.8827 30.1308H12.9159C13.0237 29.6231 13.1813 29.0895 13.3472 28.5559L14.1351 26.0086H14.8732L15.6197 28.5043C15.8021 29.1067 15.9348 29.6317 16.0509 30.1308H16.0841C16.1671 29.6231 16.2915 29.0981 16.4491 28.5129L17.1374 26.0086H18L16.4491 31H15.6528L14.9147 28.6162C14.7488 28.0568 14.6078 27.5663 14.4834 26.9725H14.4668C14.3507 27.5749 14.2014 28.0912 14.0273 28.6248L13.2476 31H12.4514L11 26.0086H11.8874V26Z" fill="black"/>
<path d="M22 26.1078C21.9853 26.4562 21.9632 26.846 21.9632 27.4265V30.2216C21.9632 31.3246 21.7716 32.0047 21.3517 32.4194C20.9392 32.859 20.3352 33 19.7974 33C19.2818 33 18.7219 32.859 18.3757 32.6019L18.5672 31.9384C18.8471 32.1374 19.2891 32.3199 19.8195 32.3199C20.6151 32.3199 21.1971 31.8555 21.1971 30.6363V30.0972H21.1823C20.9466 30.545 20.4825 30.9017 19.8195 30.9017C18.7587 30.9017 18 29.8898 18 28.5545C18 26.9206 18.9429 26 19.9227 26C20.6667 26 21.0718 26.4396 21.256 26.8377H21.2707L21.3076 26.1078H22ZM21.1971 28.0071C21.1971 27.8578 21.1897 27.7251 21.1529 27.609C21.0129 27.1031 20.6298 26.6801 20.0626 26.6801C19.3186 26.6801 18.7882 27.3851 18.7882 28.5047C18.7882 29.4502 19.2155 30.2382 20.0552 30.2382C20.5341 30.2382 20.9687 29.8981 21.1308 29.3424C21.175 29.1931 21.1897 29.0273 21.1897 28.878V28.0071H21.1971Z" fill="black"/>
</svg>
