<svg width="34" height="36" viewBox="0 0 34 36" fill="none" xmlns="http://www.w3.org/2000/svg">
<path d="M5.01465 22.5814V2.64298C5.01465 1.51155 5.90414 0.59375 7.00067 0.59375H22.8888C23.3872 0.59375 23.8626 0.78364 24.2307 1.12386L32.7805 9.1388C33.1946 9.5265 33.4323 10.0803 33.4323 10.6579V33.3498C33.4323 34.4812 32.5428 35.399 31.4463 35.399H7.00067C5.90414 35.399 5.01465 34.4812 5.01465 33.3498V32.6535" fill="#F0F0F0"/>
<path d="M5.01465 22.5814V2.64298C5.01465 1.51155 5.90414 0.59375 7.00067 0.59375H22.8888C23.3872 0.59375 23.8626 0.78364 24.2307 1.12386L32.7805 9.1388C33.1946 9.5265 33.4323 10.0803 33.4323 10.6579V33.3498C33.4323 34.4812 32.5428 35.399 31.4463 35.399H7.00067C5.90414 35.399 5.01465 34.4812 5.01465 33.3498V32.6535" stroke="black" stroke-width="0.4" stroke-miterlimit="10" stroke-linecap="round"/>
<path d="M23.6636 1.51074C23.6636 3.55206 23.6636 5.59338 23.6636 7.6347C23.6636 8.80569 24.2157 9.75514 24.8981 9.75514C27.4439 9.75514 29.9974 9.75514 32.5431 9.75514" stroke="black" stroke-width="0.4" stroke-miterlimit="10" stroke-linecap="round"/>
<path d="M23.2644 32.661H2.74476C1.54855 32.661 0.574707 31.6561 0.574707 30.4218V24.828C0.574707 23.5937 1.54855 22.5889 2.74476 22.5889H23.2567C24.4529 22.5889 25.4268 23.5937 25.4268 24.828V30.4218C25.4344 31.6561 24.4606 32.661 23.2644 32.661Z" fill="#CCCCCC" stroke="black" stroke-width="0.4" stroke-miterlimit="10" stroke-linecap="round"/>
<path d="M4 30.4967C4 30.2053 4.20979 30 4.5035 30C4.7972 30 5 30.2053 5 30.4967C5 30.7815 4.8042 31 4.4965 31C4.2028 31 4 30.7815 4 30.4967Z" fill="black"/>
<path d="M8.56 23.61C8.82667 23.61 9.05333 23.65 9.24 23.73V24.51C9.05333 24.43 8.85 24.39 8.63 24.39C8.15667 24.39 7.92 24.6633 7.92 25.21V25.96H9.17V26.75H7.92V31H7.05V26.75H6.14V25.96H7.05V25.19C7.05 24.69 7.18 24.3033 7.44 24.03C7.70667 23.75 8.08 23.61 8.56 23.61ZM10.9403 26.65C11.2936 26.1167 11.8536 25.85 12.6203 25.85C13.327 25.85 13.8936 26.1 14.3203 26.6C14.7603 27.1 14.9803 27.7267 14.9803 28.48C14.9803 29.2333 14.7636 29.8633 14.3303 30.37C13.897 30.8633 13.3303 31.11 12.6303 31.11C11.8636 31.11 11.287 30.8267 10.9003 30.26L10.8503 31H10.0803V23.7H10.9403V26.65ZM12.4903 26.67C12.0703 26.67 11.7036 26.8367 11.3903 27.17C11.0836 27.4967 10.9303 27.9333 10.9303 28.48V28.53C10.9303 29.0567 11.0836 29.4833 11.3903 29.81C11.697 30.1367 12.067 30.3 12.5003 30.3C12.9803 30.3 13.3636 30.1333 13.6503 29.8C13.9436 29.46 14.0903 29.02 14.0903 28.48C14.0903 27.94 13.9403 27.5067 13.6403 27.18C13.3403 26.84 12.957 26.67 12.4903 26.67ZM18.2609 28.4L20.0109 31H18.9909L17.6809 29.08L16.3809 31H15.3609L17.1009 28.4L15.4709 25.96H16.4909L17.6809 27.72L18.8809 25.96H19.9009L18.2609 28.4Z" fill="#333333"/>
<path d="M11.4148 6.34069L9.34073 8.41476C9.26666 8.48883 9.22221 8.59254 9.22221 8.69624V17.3777C9.22221 17.5999 9.39999 17.7777 9.62221 17.7777H18.3007C18.4074 17.7777 18.5081 17.7362 18.5822 17.6592L20.6593 15.5822C20.7333 15.5081 20.7778 15.4044 20.7778 15.3007V6.62217C20.7778 6.39995 20.6 6.22217 20.3778 6.22217H11.6993C11.5926 6.22217 11.4918 6.26365 11.4148 6.34069Z" stroke="black" stroke-width="0.4" stroke-miterlimit="10"/>
<path d="M9.22221 8.58667H18.4133V17.7778" stroke="black" stroke-width="0.4" stroke-miterlimit="10"/>
<path d="M18.4133 8.58677L20.6355 6.31714" stroke="black" stroke-width="0.4" stroke-miterlimit="10"/>
</svg>
