<svg width="31" height="31" viewBox="0 0 31 31" fill="none" xmlns="http://www.w3.org/2000/svg">
<g clip-path="url(#clip0)">
<path d="M15.25 30.25C23.5343 30.25 30.25 23.5343 30.25 15.25C30.25 6.96573 23.5343 0.25 15.25 0.25C6.96573 0.25 0.25 6.96573 0.25 15.25C0.25 23.5343 6.96573 30.25 15.25 30.25Z" stroke="#F1F1F1" stroke-width="0.8" stroke-miterlimit="10"/>
<path d="M12.4097 12.25C12.3997 12.25 10.8797 12.25 10.8597 12.25C10.8497 12.25 9.5997 12.25 9.5897 12.25C9.5697 11.88 9.4597 9.62 11.1797 7.87C12.2597 6.78 13.6997 6.23 15.5097 6.23C17.0697 6.23 18.3597 6.67 19.3697 7.56C20.3797 8.45 20.8897 9.66 20.8897 11.21C20.8897 12.23 20.6597 13.08 20.1997 13.78C19.9497 14.17 19.4597 14.68 18.7197 15.31C17.9297 15.97 17.4097 16.5 17.1697 16.91C16.7597 17.55 16.5497 18.41 16.5497 19.48H13.8897C13.8897 18.12 14.0497 17.06 14.3597 16.32C14.6197 15.69 15.1097 15.08 15.8197 14.47C16.5897 13.8 17.0597 13.36 17.2297 13.16C17.6197 12.65 17.8197 12.03 17.8197 11.31C17.8197 10.41 17.5297 9.7 16.9597 9.19C16.4797 8.78 15.9597 8.57 15.4097 8.57C13.4097 8.58 12.4097 9.8 12.4097 12.25ZM13.5197 23.42V22.02C13.5197 21.55 13.8997 21.18 14.3597 21.18H15.9797C16.4497 21.18 16.8197 21.56 16.8197 22.02V23.42C16.8197 23.89 16.4397 24.26 15.9797 24.26H14.3597C13.8997 24.27 13.5197 23.89 13.5197 23.42Z" stroke="#F1F1F1" stroke-width="0.8" stroke-miterlimit="10"/>
</g>
<defs>
<clipPath id="clip0">
<rect width="30.5" height="30.5" fill="white"/>
</clipPath>
</defs>
</svg>
