<svg width="23" height="25" viewBox="0 0 23 25" fill="none" xmlns="http://www.w3.org/2000/svg">
<path d="M20.9403 21.35H1.92029C1.40029 21.35 1.08029 20.79 1.34029 20.34C2.84029 17.71 3.49029 15.41 3.79029 13.71C4.53029 9.55 3.61029 6.76 5.51029 4.73C6.69029 3.47 8.37029 3.12 9.62029 3.02C9.64029 3.02 9.66029 3.02 9.68029 3.02H13.1803C13.2003 3.02 13.2203 3.02 13.2403 3.02C14.4903 3.12 16.1803 3.48 17.3503 4.73C19.2503 6.76 18.3303 9.55 19.0703 13.71C19.3703 15.41 20.0103 17.71 21.5203 20.34C21.7803 20.79 21.4603 21.35 20.9403 21.35Z" stroke="#F1F1F1" stroke-width="0.8" stroke-miterlimit="10"/>
<path d="M9.65039 3C9.65039 1.59 10.4504 0.45 11.4304 0.45C12.4104 0.45 13.2204 1.6 13.2204 3" stroke="#F1F1F1" stroke-width="0.8" stroke-miterlimit="10"/>
<path d="M8.37012 21.35C8.37012 22.76 9.74012 23.9 11.4301 23.9C13.1201 23.9 14.4901 22.76 14.4901 21.35" stroke="#F1F1F1" stroke-width="0.8" stroke-miterlimit="10"/>
</svg>
