<svg width="34" height="36" viewBox="0 0 34 36" fill="none" xmlns="http://www.w3.org/2000/svg">
<path d="M5.01465 22.5812V2.64274C5.01465 1.51131 5.90414 0.593506 7.00067 0.593506H22.8888C23.3872 0.593506 23.8626 0.783396 24.2307 1.12362L32.7805 9.13856C33.1946 9.52625 33.4323 10.0801 33.4323 10.6577V33.3495C33.4323 34.481 32.5428 35.3988 31.4463 35.3988H7.00067C5.90414 35.3988 5.01465 34.481 5.01465 33.3495V32.6533" fill="white"/>
<path d="M5.01465 22.5812V2.64274C5.01465 1.51131 5.90414 0.593506 7.00067 0.593506H22.8888C23.3872 0.593506 23.8626 0.783396 24.2307 1.12362L32.7805 9.13856C33.1946 9.52625 33.4323 10.0801 33.4323 10.6577V33.3495C33.4323 34.481 32.5428 35.3988 31.4463 35.3988H7.00067C5.90414 35.3988 5.01465 34.481 5.01465 33.3495V32.6533" stroke="black" stroke-width="0.4" stroke-miterlimit="10" stroke-linecap="round"/>
<path d="M23.6631 1.51099C23.6631 3.5523 23.6631 5.59362 23.6631 7.63494C23.6631 8.80593 24.2152 9.75538 24.8976 9.75538C27.4434 9.75538 29.9969 9.75538 32.5427 9.75538" stroke="black" stroke-width="0.4" stroke-miterlimit="10" stroke-linecap="round"/>
<path d="M5 22.4998V32.4998" stroke="black" stroke-width="0.4"/>
<path d="M11 16.9998H27.5M11 20.9998H27.5M11 25.4998H27.5" stroke="black" stroke-width="0.4"/>
</svg>
