<svg width="34" height="36" viewBox="0 0 34 36" fill="none" xmlns="http://www.w3.org/2000/svg">
<g clip-path="url(#clip0)">
<path d="M4.93079 23.0613V2.96134C4.93079 1.82074 5.84067 0.895508 6.96233 0.895508H23.2147C23.7246 0.895508 24.2109 1.08694 24.5874 1.42991L33.3332 9.50978C33.7568 9.90061 33.9999 10.4589 33.9999 11.0412V33.9169C33.9999 35.0575 33.0901 35.9827 31.9684 35.9827H6.96233C5.84067 35.9827 4.93079 35.0575 4.93079 33.9169V33.215" fill="white"/>
<path d="M4.93079 23.0613V2.96134C4.93079 1.82074 5.84067 0.895508 6.96233 0.895508H23.2147C23.7246 0.895508 24.2109 1.08694 24.5874 1.42991L33.3332 9.50978C33.7568 9.90061 33.9999 10.4589 33.9999 11.0412V33.9169C33.9999 35.0575 33.0901 35.9827 31.9684 35.9827H6.96233C5.84067 35.9827 4.93079 35.0575 4.93079 33.9169V33.215" stroke="black" stroke-width="0.4" stroke-miterlimit="10" stroke-linecap="round"/>
<path d="M23.9951 1.80957C23.9951 3.86742 23.9951 5.92528 23.9951 7.98313C23.9951 9.1636 24.5598 10.1207 25.2579 10.1207C27.8621 10.1207 30.4741 10.1207 33.0782 10.1207" fill="#CCCCCC"/>
<path d="M23.9951 1.80957C23.9951 3.86742 23.9951 5.92528 23.9951 7.98313C23.9951 9.1636 24.5598 10.1207 25.2579 10.1207C27.8621 10.1207 30.4741 10.1207 33.0782 10.1207" stroke="black" stroke-width="0.4" stroke-miterlimit="10" stroke-linecap="round"/>
<path d="M23.599 33.2228H2.60896C1.38532 33.2228 0.38916 32.2098 0.38916 30.9655V25.3263C0.38916 24.0821 1.38532 23.0691 2.60896 23.0691H23.5911C24.8148 23.0691 25.8109 24.0821 25.8109 25.3263V30.9655C25.8188 32.2098 24.8226 33.2228 23.599 33.2228Z" fill="#EE5454" stroke="black" stroke-width="0.4" stroke-miterlimit="10" stroke-linecap="round"/>
<path d="M5.26822 30.8227C5.26822 30.4717 5.50353 30.2245 5.83297 30.2245C6.16241 30.2245 6.38988 30.4717 6.38988 30.8227C6.38988 31.1657 6.17026 31.4289 5.82513 31.4289C5.49569 31.4289 5.26822 31.1737 5.26822 30.8227Z" fill="black"/>
<path d="M7.41767 28.2059C7.41767 27.6157 7.40198 27.1371 7.37845 26.6984H8.12361L8.16283 27.496H8.17852C8.5158 26.9297 9.05702 26.5947 9.79434 26.5947C10.8925 26.5947 11.7239 27.5439 11.7239 28.9477C11.7239 30.6147 10.7278 31.4363 9.65315 31.4363C9.04918 31.4363 8.52365 31.1651 8.24911 30.7104H8.23342V33.2229H7.41767V28.2059ZM8.23342 29.4342C8.23342 29.5619 8.24911 29.6735 8.27264 29.7772C8.42168 30.3595 8.92368 30.7663 9.51197 30.7663C10.3905 30.7663 10.8925 30.0404 10.8925 28.9796C10.8925 28.0544 10.414 27.2567 9.5355 27.2567C8.97074 27.2567 8.44521 27.6715 8.28049 28.3016C8.24911 28.4053 8.22558 28.5329 8.22558 28.6446V29.4342H8.23342Z" fill="black"/>
<path d="M16.705 24.5295V30.1288C16.705 30.5436 16.7128 31.0062 16.7442 31.3252H15.9991L15.9598 30.5196H15.9442C15.6932 31.0381 15.1362 31.4289 14.3911 31.4289C13.2929 31.4289 12.4458 30.4798 12.4458 29.076C12.438 27.5366 13.3792 26.5874 14.4852 26.5874C15.1833 26.5874 15.6539 26.9224 15.8579 27.2973H15.8736V24.5295H16.705ZM15.8736 28.5735C15.8736 28.4698 15.8657 28.3262 15.8343 28.2225C15.7088 27.6881 15.2617 27.2494 14.6421 27.2494C13.7871 27.2494 13.2773 28.0151 13.2773 29.0361C13.2773 29.9693 13.7322 30.751 14.6264 30.751C15.1833 30.751 15.6853 30.3761 15.8422 29.746C15.8736 29.6343 15.8814 29.5146 15.8814 29.3791V28.5735H15.8736Z" fill="black"/>
<path d="M18.1637 31.3248V27.3367H17.5205V26.6986H18.1637V26.4753C18.1637 25.8212 18.3049 25.231 18.6892 24.8561C19.003 24.553 19.4108 24.4254 19.803 24.4254C20.0932 24.4254 20.3521 24.4892 20.509 24.561L20.3992 25.2151C20.2737 25.1592 20.1089 25.1114 19.8736 25.1114C19.1677 25.1114 18.9873 25.7415 18.9873 26.4514V26.6986H20.0854V27.3367H18.9873V31.3248H18.1637Z" fill="black"/>
</g>
<defs>
<clipPath id="clip0">
<rect width="34" height="36" fill="white"/>
</clipPath>
</defs>
</svg>
