<svg width="24" height="25" viewBox="0 0 24 25" fill="none" xmlns="http://www.w3.org/2000/svg">
<path d="M6.27332 16.3791C7.40911 16.3791 8.32984 15.486 8.32984 14.3844C8.32984 13.2827 7.40911 12.3896 6.27332 12.3896C5.13753 12.3896 4.2168 13.2827 4.2168 14.3844C4.2168 15.486 5.13753 16.3791 6.27332 16.3791Z" stroke="white" stroke-width="0.7" stroke-miterlimit="10" stroke-linecap="round"/>
<path d="M3.01758 22.0267V20.0635C3.01758 18.5793 3.99972 17.374 5.21518 17.374H7.33682C8.54686 17.374 9.53442 18.5793 9.53442 20.0635V22.0267" stroke="white" stroke-width="0.7" stroke-miterlimit="10" stroke-linecap="round"/>
<path d="M21.4228 22.1472H0.407227V0.394531H22.9801V22.1472" stroke="white" stroke-width="0.7" stroke-miterlimit="10"/>
<path d="M16.5225 11.0633C17.1465 12.9212 17.9061 14.9054 18.834 16.9843C20.082 19.7738 21.4169 22.2527 22.73 24.4159C22.8548 24.5791 23.0773 24.6475 23.2618 24.5896C23.4897 24.5159 23.6362 24.2738 23.5765 24.0264C22.8277 21.637 21.813 18.9633 20.4293 16.1264C19.4038 14.0159 18.324 12.1264 17.2658 10.458" stroke="white" stroke-width="0.7" stroke-miterlimit="10"/>
<path d="M10.2667 4.77827C10.2558 4.86248 11.5147 4.79932 12.3775 5.70458C12.8929 6.24669 13.0666 6.92563 13.2077 7.45721C13.517 8.64142 13.2294 9.08353 13.696 9.66248C13.7557 9.73616 14.2007 10.273 14.8844 10.352C15.3347 10.3993 15.8665 10.1414 16.9354 9.62037C17.2719 9.45721 17.4401 9.373 17.5052 9.32037C18.254 8.70985 18.292 7.30985 17.999 6.58353C17.0114 4.12563 10.2884 4.58353 10.2667 4.77827Z" stroke="white" stroke-width="0.7" stroke-miterlimit="10"/>
<path d="M15.0303 10.2257L15.3396 10.8046C15.5512 11.2046 16.0612 11.3625 16.4736 11.152L17.6674 10.552C18.0798 10.3467 18.2426 9.85199 18.0255 9.45199L17.7162 8.87305" stroke="white" stroke-width="0.7" stroke-miterlimit="10"/>
</svg>
