<svg width="31" height="30" viewBox="0 0 31 30" fill="none" xmlns="http://www.w3.org/2000/svg">
<path d="M11.5163 21.789C17.4532 21.789 22.2661 16.9762 22.2661 11.0393C22.2661 5.10237 17.4532 0.289551 11.5163 0.289551C5.57942 0.289551 0.766602 5.10237 0.766602 11.0393C0.766602 16.9762 5.57942 21.789 11.5163 21.789Z" stroke="#333333" stroke-width="0.7" stroke-miterlimit="10" stroke-linecap="round"/>
<path d="M20.1658 17.5967C20.3064 18.2747 20.6206 19.2257 21.3896 19.9864C22.2579 20.8464 23.2667 21.0449 23.7794 21.2102C25.1024 21.6237 27.1283 23.0377 30.1052 27.536C29.7165 27.9247 29.3279 28.3133 28.9393 28.702L29.1873 28.4539C28.7987 28.8425 28.41 29.2312 28.0214 29.6198C23.523 26.643 22.109 24.6171 21.6956 23.294C21.5302 22.7731 21.3318 21.7643 20.4718 20.9043C19.7028 20.1353 18.7601 19.821 18.082 19.6805" stroke="#333333" stroke-width="0.7" stroke-miterlimit="10" stroke-linecap="round"/>
</svg>
