<svg width="81" height="81" viewBox="0 0 81 81" fill="none" xmlns="http://www.w3.org/2000/svg">
<circle cx="40.5" cy="40.5" r="40.5" fill="white"/>
<path d="M18.8038 32.612C18.8038 38.5312 24.6739 42.4572 35.3287 43.6803L45.9834 44.9034C50.1872 45.3413 55.186 46.4285 55.186 49.0861C55.186 51.7437 49.958 53.7973 42.758 53.7973C31.7669 53.7973 28.3426 50.3847 26.6 47.41L26.3859 47.0476L17 49.5089L17.1681 49.9468C18.1312 52.544 22.7784 61 42.5134 61C56.8064 61 65 56.4247 65 48.4519C65 42.3364 59.6497 38.652 48.6586 37.2326L38.1262 35.9189C28.6179 34.9072 28.6178 33.0499 28.6178 32.1439C28.6178 29.0484 34.442 27.9461 39.8841 27.9461C51.1809 27.9461 53.9019 31.3134 54.972 33.8351L55.1554 34.273L64.4497 31.7211L64.251 31.2832C63.135 28.7464 59.8026 21 40.1287 21C26.3707 20.9849 18.8038 25.1374 18.8038 32.612Z" fill="#117BC1"/>
</svg>
