<svg width="97" height="113" viewBox="0 0 97 113" fill="none" xmlns="http://www.w3.org/2000/svg">
<g clip-path="url(#clip0)">
<path d="M48.2296 56.62C54.2385 56.62 59.1096 51.7489 59.1096 45.74C59.1096 39.7311 54.2385 34.86 48.2296 34.86C42.2208 34.86 37.3496 39.7311 37.3496 45.74C37.3496 51.7489 42.2208 56.62 48.2296 56.62Z" stroke="#F1F1F1" stroke-width="1.4" stroke-miterlimit="10"/>
<path d="M31 87.44V76.73C31 68.63 36.2 62.06 42.62 62.06H53.84C60.26 62.06 65.46 68.63 65.46 76.73V87.44" stroke="#F1F1F1" stroke-width="1.4" stroke-miterlimit="10"/>
<path d="M73.61 45.84C78.8954 45.84 83.18 41.5554 83.18 36.27C83.18 30.9846 78.8954 26.7 73.61 26.7C68.3247 26.7 64.04 30.9846 64.04 36.27C64.04 41.5554 68.3247 45.84 73.61 45.84Z" stroke="#F1F1F1" stroke-width="1.4" stroke-miterlimit="10"/>
<path d="M58.4805 62.83C58.7605 56.02 63.2205 50.62 68.6805 50.62H78.5405C84.1805 50.62 88.7505 56.4 88.7505 63.52V72.94" stroke="#F1F1F1" stroke-width="1.4" stroke-miterlimit="10"/>
<path d="M22.8503 45.84C28.1356 45.84 32.4203 41.5554 32.4203 36.27C32.4203 30.9846 28.1356 26.7 22.8503 26.7C17.5649 26.7 13.2803 30.9846 13.2803 36.27C13.2803 41.5554 17.5649 45.84 22.8503 45.84Z" stroke="#F1F1F1" stroke-width="1.4" stroke-miterlimit="10"/>
<path d="M7.7002 72.93V63.51C7.7002 56.38 12.2702 50.61 17.9102 50.61H27.7702C33.2202 50.61 37.6802 56.01 37.9702 62.81" stroke="#F1F1F1" stroke-width="1.4" stroke-miterlimit="10"/>
</g>
<defs>
<clipPath id="clip0">
<rect width="82.46" height="61.44" fill="white" transform="translate(7 26)"/>
</clipPath>
</defs>
</svg>
