<svg width="774" height="161" viewBox="0 0 774 161" fill="none" xmlns="http://www.w3.org/2000/svg">
<path d="M5.38239 34.3515C5.38239 51.8555 22.405 63.4957 53.2558 67.0402L83.7566 70.5848C95.4843 71.8538 109.487 74.8295 109.487 82.0936C109.487 89.3578 94.4776 95.0466 74.5669 95.0466C43.4098 95.0466 33.7826 85.3319 28.9253 76.8424L28.0503 75.3546L0 82.8376L0.700309 84.8068C3.45719 92.421 16.9789 117.189 73.8668 117.189C115.176 117.189 138.85 103.711 138.85 80.1682C138.85 62.0078 123.359 51.1554 91.5022 47.0419L61.3515 43.2348C34.7455 40.4342 34.7454 35.2705 34.7454 33.0825C34.7454 24.5931 51.7682 21.5736 66.3402 21.5736C98.285 21.5736 105.943 31.0696 108.962 38.2462L109.706 40.0403L137.494 32.2948L136.662 30.3256C133.424 22.7552 123.753 0 67.0403 0C27.3062 0 5.38239 12.209 5.38239 34.3515Z" fill="white"/>
<path d="M6.65192 34.3517C6.65192 51.5056 23.4557 62.8832 53.9564 66.4278L84.457 69.9723C96.491 71.2413 110.801 74.3921 110.801 82.0938C110.801 89.7956 95.8346 95.7469 75.2237 95.7469C43.7603 95.7469 33.958 85.8572 28.9694 77.2365L28.3567 76.1862L1.48828 83.3191L1.96958 84.5881C4.72645 92.1148 18.0296 116.62 74.5236 116.62C115.439 116.62 138.894 103.361 138.894 80.2559C138.894 62.5331 123.578 51.8557 92.115 47.7423L61.9646 43.9351C34.7459 41.0032 34.7457 35.6207 34.7457 32.9952C34.7457 24.0244 51.4183 20.8299 66.9968 20.8299C99.3354 20.8299 107.125 30.5884 110.188 37.8963L110.713 39.1653L137.319 31.7699L136.75 30.5008C133.556 23.1492 124.016 0.700314 67.6971 0.700314C28.3132 0.656554 6.65192 12.6905 6.65192 34.3517Z" fill="white"/>
<path d="M221.602 71.416C221.602 99.2473 244.138 117.189 279.015 117.189C316.167 117.189 329.689 95.8778 331.527 88.3949L332.095 85.9443H303.389L302.82 87.2134C300.282 92.202 292.318 98.022 278.315 98.022C262.386 97.4969 252.759 91.0642 249.564 79.0302H333.321V77.0173C333.321 44.5474 313.454 26.5183 277.352 26.212C238.843 26.0807 221.602 48.8359 221.602 71.416ZM276.87 45.3351C291.836 45.3351 300.501 50.1049 304.133 60.2572H250.614C254.597 50.2362 263.174 45.3351 276.87 45.3351Z" fill="white"/>
<path d="M222.258 71.416C222.258 98.8535 244.532 116.576 279.015 116.576C315.773 116.576 329.12 95.6153 330.914 88.2636L331.308 86.557H303.783L303.345 87.3884C300.72 92.5083 292.58 98.5472 278.271 98.5472C261.467 97.9783 251.665 91.0642 248.689 78.2863H332.708V76.886C332.708 44.8537 313.06 26.9997 277.396 26.6934C239.324 26.7371 222.258 49.186 222.258 71.416ZM276.87 44.7225C292.712 44.7225 301.551 50.0174 305.052 60.9136H249.652C253.502 50.1487 262.298 44.7225 276.87 44.7225Z" fill="white"/>
<path d="M359.619 28.8379H331.744L371.697 114.476H395.765L418.783 61.0014L441.8 114.476H466.262L505.865 28.8379H478.296L454.228 82.6626L430.292 28.8379H407.493L383.819 82.5751L360.057 28.8379H359.619Z" fill="white"/>
<path d="M502.495 29.4502H478.733L454.228 84.1939L429.853 29.4502H407.842C407.842 29.4502 386.575 77.9362 383.818 84.1064L359.662 29.4502H332.75L372.134 113.819H395.414C395.414 113.819 416.157 65.6397 418.87 59.3382C421.583 65.6834 442.281 113.819 442.281 113.819H465.912L504.902 29.4502H502.495Z" fill="white"/>
<path d="M509.583 53.6498L509.014 56.1879H536.758L537.196 54.6563C537.852 52.3808 539.778 45.4229 561.001 45.4229C576.055 45.4229 583.669 48.3111 583.669 53.9999V55.7503C559.382 57.0193 504.113 59.9512 504.113 90.627C504.113 111.676 529.013 117.233 543.716 117.233C557.763 117.102 571.591 113.732 584.106 107.431L585.2 114.695L587.213 114.52H613.819L611.938 111.5C611.369 110.582 610.45 107.825 610.45 99.2914V58.5509C610.45 48.0485 610.45 26.1248 560.782 26.1248C540.522 26.081 515.141 30.8509 509.583 53.6498ZM533.17 89.533V89.2267C533.301 83.3628 538.727 79.9495 551.855 77.3239C562.358 75.2235 573.035 73.9544 583.756 73.5168V88.7453C574.567 93.3401 562.226 98.5913 546.998 98.5913C541.922 98.5913 537.984 97.541 535.664 95.5281C533.958 93.9965 533.082 91.8085 533.17 89.533Z" fill="white"/>
<path d="M510.241 53.781L509.847 55.4876H536.322L536.628 54.3936C537.328 51.9868 539.385 44.6789 561.046 44.6789C576.493 44.6789 584.37 47.7858 584.37 53.9122V56.2753C559.383 57.5443 504.814 60.695 504.814 90.4956C504.814 111.019 529.32 116.533 543.805 116.533C562.578 116.533 576.406 110.406 584.676 106.38L585.814 113.907L587.258 113.776H612.814L611.545 111.719C610.801 110.581 609.926 107.431 609.926 99.16V58.507C609.926 48.1797 609.926 26.7373 560.871 26.7373C540.785 26.7373 515.667 31.4196 510.241 53.781ZM535.315 96.0093C533.477 94.3902 532.471 92.0271 532.558 89.5328V89.2265C532.69 83.0126 538.247 79.3805 551.769 76.7112C562.534 74.5232 573.43 73.2104 584.414 72.7728V89.139C575.005 93.9088 562.403 99.2038 547.087 99.2038C541.748 99.2038 537.722 98.1098 535.315 96.0093Z" fill="white"/>
<path d="M689 26.0811C675.347 26.0811 664.625 30.107 656.967 37.94V28.7942H630.143V114.432H656.967V69.1408C657.142 62.7956 657.536 49.4051 683.223 49.2738C687.381 49.2301 691.538 49.6239 695.608 50.5429L698.321 51.1555L699.152 48.88V26.5187L689 26.0811Z" fill="white"/>
<path d="M656.312 39.4713V29.4502H630.756V113.819H656.312V69.1405C656.487 62.7953 656.924 48.7921 683.224 48.6609C687.469 48.6171 691.67 49.0547 695.827 49.9736L697.883 50.4113L698.496 48.7484V27.0434L688.957 26.6934C671.715 26.7371 662 33.1261 656.312 39.4713Z" fill="white"/>
<path d="M737.749 8.09552H711.537V91.4582C711.537 109.181 722.389 117.189 746.676 117.189C754.421 117.102 762.123 116.533 769.781 115.482L773.019 115.132V94.1713L770.175 94.8277C764.092 96.1405 757.922 96.8407 751.708 97.0157C742.475 97.0157 738.361 93.9525 738.361 87.0385V48.7485H773.282V28.5752H738.405V8.05176H737.749V8.09552Z" fill="white"/>
<path d="M712.193 8.70801V91.4581C712.193 108.787 722.827 116.533 746.676 116.533C754.378 116.445 762.08 115.876 769.738 114.826L772.407 114.52V94.9151L770.35 95.3965C764.224 96.7093 758.01 97.4532 751.752 97.6282C742.213 97.6282 737.793 94.2587 737.793 87.0383V48.1795H772.713V29.2314H737.793V8.70801H712.193Z" fill="white"/>
<path d="M178.804 8.09552H152.592V91.4582C152.592 109.181 163.444 117.189 187.731 117.189C195.477 117.102 203.178 116.533 210.836 115.482L214.074 115.132V94.1713L211.186 94.8277C205.104 96.1405 198.934 96.8407 192.763 97.0157C183.53 97.0157 179.417 93.9525 179.417 87.0385V48.7485H214.337V28.5752H179.417V8.05176H178.804V8.09552Z" fill="white"/>
<path d="M153.248 8.70801V91.4581C153.248 108.787 163.882 116.533 187.775 116.533C195.476 116.445 203.178 115.876 210.836 114.826L213.505 114.52V94.9151L211.405 95.3965C205.279 96.7093 199.065 97.4532 192.807 97.6282C183.267 97.6282 178.848 94.2587 178.848 87.0383V48.1795H213.724V29.2314H178.804V8.70801H153.248Z" fill="white"/>
<path d="M11.6836 134.474H31.5508V139.682H17.4161V145.239H29.8441V150.446H17.4161V160.599H11.6836V134.474Z" fill="white"/>
<path d="M93.7773 134.474H99.5099V160.555H93.7773V134.474Z" fill="white"/>
<path d="M163.4 134.474H169.133V155.348H182.13V160.555H163.4V134.474Z" fill="white"/>
<path d="M243.875 134.474H250.045L256.916 145.502L263.786 134.474H270V160.555H264.311V143.532L256.916 154.647H256.784L249.52 143.62V160.555H243.875V134.474Z" fill="white"/>
<path d="M331.789 156.748L335.202 152.679C337.347 154.648 340.103 155.786 342.992 155.829C345.355 155.829 346.799 154.91 346.799 153.379V153.335C346.799 151.891 345.88 151.147 341.547 150.009C336.296 148.653 332.883 147.209 332.883 142.045V141.914C332.883 137.188 336.69 134.037 342.029 134.037C345.53 133.993 348.987 135.175 351.7 137.363L348.724 141.695C346.755 140.207 344.392 139.288 341.941 139.157C339.753 139.157 338.572 140.163 338.572 141.432V141.52C338.572 143.226 339.666 143.795 344.217 144.933C349.512 146.333 352.487 148.215 352.487 152.766V152.854C352.487 158.017 348.549 160.949 342.904 160.949C338.791 160.993 334.852 159.461 331.789 156.748Z" fill="white"/>
<path d="M413.662 147.602V147.515C413.531 140.207 419.351 134.168 426.703 134.037C426.878 134.037 427.097 134.037 427.272 134.037C431.122 133.862 434.886 135.306 437.555 138.063L433.923 142.264C432.173 140.469 429.766 139.375 427.272 139.332C422.983 139.375 419.614 142.92 419.657 147.165C419.657 147.252 419.657 147.34 419.657 147.427V147.515C419.657 151.978 422.764 155.698 427.272 155.698C429.897 155.654 432.348 154.56 434.142 152.635L437.774 156.311C435.104 159.417 431.166 161.124 427.097 160.993C419.833 161.124 413.837 155.304 413.706 148.04C413.662 147.909 413.662 147.734 413.662 147.602Z" fill="white"/>
<path d="M499.695 134.474H511.642C514.442 134.299 517.156 135.262 519.256 137.144C520.788 138.763 521.575 140.907 521.488 143.095V143.226C521.663 146.858 519.387 150.184 515.887 151.322L522.232 160.643H515.536L509.935 152.285H505.428V160.643H499.695V134.474ZM511.248 147.121C514.049 147.121 515.624 145.633 515.624 143.445V143.358C515.624 140.907 513.917 139.638 511.117 139.638H505.428V147.121H511.248Z" fill="white"/>
<path d="M584.021 134.474H603.669V139.55H589.71V144.845H601.963V149.921H589.666V155.391H603.801V160.468H583.934V134.474H584.021Z" fill="white"/>
<path d="M666.376 134.474H686.024V139.55H672.065V144.845H684.361V149.921H672.065V155.391H686.199V160.468H666.332V134.474H666.376Z" fill="white"/>
<path d="M748.734 134.474H754.029L766.238 150.534V134.474H771.839V160.555H766.982L754.291 143.97V160.555H748.646L748.734 134.474Z" fill="white"/>
</svg>
